M48
; DRILL file KiCad 10.0.1 date 2026-04-23T23:07:35
; FORMAT={-:-/ absolute / metric / decimal}
; #@! TF.CreationDate,2026-04-23T23:07:35+10:00
; #@! TF.GenerationSoftware,Kicad,Pcbnew,10.0.1
; #@! TF.FileFunction,Plated,1,2,PTH
FMAT,2
METRIC
; #@! TA.AperFunction,Plated,PTH,ComponentDrill
T1C0.991
; #@! TA.AperFunction,Plated,PTH,ComponentDrill
T2C1.000
; #@! TA.AperFunction,Plated,PTH,ComponentDrill
T3C1.100
; #@! TA.AperFunction,Plated,PTH,ComponentDrill
T4C3.200
%
G90
G05
T1
X129.46Y-77.51
X130.845Y-74.97
X132.23Y-77.51
X133.615Y-74.97
X135.0Y-77.51
X136.385Y-74.97
X137.77Y-77.51
X139.155Y-74.97
X140.54Y-77.51
X162.46Y-77.51
X163.845Y-74.97
X165.23Y-77.51
X166.615Y-74.97
X168.0Y-77.51
X169.385Y-74.97
X170.77Y-77.51
X172.155Y-74.97
X173.54Y-77.51
T2
X104.78Y-130.46
X104.78Y-133.23
X104.78Y-136.0
X104.78Y-138.77
X104.78Y-141.54
X107.62Y-131.845
X107.62Y-134.615
X107.62Y-137.385
X107.62Y-140.155
X130.128Y-130.46
X130.128Y-133.23
X130.128Y-136.0
X130.128Y-138.77
X130.128Y-141.54
X132.968Y-131.845
X132.968Y-134.615
X132.968Y-137.385
X132.968Y-140.155
X155.476Y-130.46
X155.476Y-133.23
X155.476Y-136.0
X155.476Y-138.77
X155.476Y-141.54
X158.316Y-131.845
X158.316Y-134.615
X158.316Y-137.385
X158.316Y-140.155
X180.824Y-130.46
X180.824Y-133.23
X180.824Y-136.0
X180.824Y-138.77
X180.824Y-141.54
X183.664Y-131.845
X183.664Y-134.615
X183.664Y-137.385
X183.664Y-140.155
T3
X102.46Y-70.0
X105.0Y-70.0
T4
X106.2Y-123.5
X106.2Y-148.5
X131.548Y-123.5
X131.548Y-148.5
X156.896Y-123.5
X156.896Y-148.5
X182.244Y-123.5
X182.244Y-148.5
M30
