%TF.GenerationSoftware,KiCad,Pcbnew,10.0.1*%
%TF.CreationDate,2026-04-23T23:06:53+10:00*%
%TF.ProjectId,BackPlane,4261636b-506c-4616-9e65-2e6b69636164,rev?*%
%TF.SameCoordinates,Original*%
%TF.FileFunction,Soldermask,Top*%
%TF.FilePolarity,Negative*%
%FSLAX46Y46*%
G04 Gerber Fmt 4.6, Leading zero omitted, Abs format (unit mm)*
G04 Created by KiCad (PCBNEW 10.0.1) date 2026-04-23 23:06:53*
%MOMM*%
%LPD*%
G01*
G04 APERTURE LIST*
G04 APERTURE END LIST*
G36*
X94943891Y-155387442D02*
G01*
X95233614Y-155453569D01*
X95514111Y-155551719D01*
X95781855Y-155680658D01*
X96033479Y-155838764D01*
X96265818Y-156024048D01*
X96475952Y-156234182D01*
X96661236Y-156466521D01*
X96819342Y-156718145D01*
X96948281Y-156985889D01*
X97046431Y-157266386D01*
X97112558Y-157556109D01*
X97145831Y-157851413D01*
X97145831Y-158148587D01*
X97112558Y-158443891D01*
X97046431Y-158733614D01*
X96948281Y-159014111D01*
X96819342Y-159281855D01*
X96661236Y-159533479D01*
X96475952Y-159765818D01*
X96265818Y-159975952D01*
X96033479Y-160161236D01*
X95781855Y-160319342D01*
X95514111Y-160448281D01*
X95233614Y-160546431D01*
X94943891Y-160612558D01*
X94648587Y-160645831D01*
X94351413Y-160645831D01*
X94056109Y-160612558D01*
X93766386Y-160546431D01*
X93485889Y-160448281D01*
X93218145Y-160319342D01*
X92966521Y-160161236D01*
X92734182Y-159975952D01*
X92524048Y-159765818D01*
X92338764Y-159533479D01*
X92180658Y-159281855D01*
X92051719Y-159014111D01*
X91953569Y-158733614D01*
X91887442Y-158443891D01*
X91854169Y-158148587D01*
X91854169Y-157851413D01*
X91887442Y-157556109D01*
X91953569Y-157266386D01*
X92051719Y-156985889D01*
X92180658Y-156718145D01*
X92338764Y-156466521D01*
X92524048Y-156234182D01*
X92734182Y-156024048D01*
X92966521Y-155838764D01*
X93218145Y-155680658D01*
X93485889Y-155551719D01*
X93766386Y-155453569D01*
X94056109Y-155387442D01*
X94351413Y-155354169D01*
X94648587Y-155354169D01*
X94943891Y-155387442D01*
G37*
G36*
X182943891Y-155387442D02*
G01*
X183233614Y-155453569D01*
X183514111Y-155551719D01*
X183781855Y-155680658D01*
X184033479Y-155838764D01*
X184265818Y-156024048D01*
X184475952Y-156234182D01*
X184661236Y-156466521D01*
X184819342Y-156718145D01*
X184948281Y-156985889D01*
X185046431Y-157266386D01*
X185112558Y-157556109D01*
X185145831Y-157851413D01*
X185145831Y-158148587D01*
X185112558Y-158443891D01*
X185046431Y-158733614D01*
X184948281Y-159014111D01*
X184819342Y-159281855D01*
X184661236Y-159533479D01*
X184475952Y-159765818D01*
X184265818Y-159975952D01*
X184033479Y-160161236D01*
X183781855Y-160319342D01*
X183514111Y-160448281D01*
X183233614Y-160546431D01*
X182943891Y-160612558D01*
X182648587Y-160645831D01*
X182351413Y-160645831D01*
X182056109Y-160612558D01*
X181766386Y-160546431D01*
X181485889Y-160448281D01*
X181218145Y-160319342D01*
X180966521Y-160161236D01*
X180734182Y-159975952D01*
X180524048Y-159765818D01*
X180338764Y-159533479D01*
X180180658Y-159281855D01*
X180051719Y-159014111D01*
X179953569Y-158733614D01*
X179887442Y-158443891D01*
X179854169Y-158148587D01*
X179854169Y-157851413D01*
X179887442Y-157556109D01*
X179953569Y-157266386D01*
X180051719Y-156985889D01*
X180180658Y-156718145D01*
X180338764Y-156466521D01*
X180524048Y-156234182D01*
X180734182Y-156024048D01*
X180966521Y-155838764D01*
X181218145Y-155680658D01*
X181485889Y-155551719D01*
X181766386Y-155453569D01*
X182056109Y-155387442D01*
X182351413Y-155354169D01*
X182648587Y-155354169D01*
X182943891Y-155387442D01*
G37*
G36*
X106590181Y-146538429D02*
G01*
X106842879Y-146606140D01*
X107084577Y-146706255D01*
X107311140Y-146837061D01*
X107518692Y-146996320D01*
X107703680Y-147181308D01*
X107862939Y-147388860D01*
X107993745Y-147615423D01*
X108093860Y-147857121D01*
X108161571Y-148109819D01*
X108195718Y-148369194D01*
X108195718Y-148630806D01*
X108161571Y-148890181D01*
X108093860Y-149142879D01*
X107993745Y-149384577D01*
X107862939Y-149611140D01*
X107703680Y-149818692D01*
X107518692Y-150003680D01*
X107311140Y-150162939D01*
X107084577Y-150293745D01*
X106842879Y-150393860D01*
X106590181Y-150461571D01*
X106330806Y-150495718D01*
X106069194Y-150495718D01*
X105809819Y-150461571D01*
X105557121Y-150393860D01*
X105315423Y-150293745D01*
X105088860Y-150162939D01*
X104881308Y-150003680D01*
X104696320Y-149818692D01*
X104537061Y-149611140D01*
X104406255Y-149384577D01*
X104306140Y-149142879D01*
X104238429Y-148890181D01*
X104204282Y-148630806D01*
X104204282Y-148369194D01*
X104238429Y-148109819D01*
X104306140Y-147857121D01*
X104406255Y-147615423D01*
X104537061Y-147388860D01*
X104696320Y-147181308D01*
X104881308Y-146996320D01*
X105088860Y-146837061D01*
X105315423Y-146706255D01*
X105557121Y-146606140D01*
X105809819Y-146538429D01*
X106069194Y-146504282D01*
X106330806Y-146504282D01*
X106590181Y-146538429D01*
G37*
G36*
X131938198Y-146538429D02*
G01*
X132190896Y-146606140D01*
X132432594Y-146706255D01*
X132659157Y-146837061D01*
X132866709Y-146996320D01*
X133051697Y-147181308D01*
X133210956Y-147388860D01*
X133341762Y-147615423D01*
X133441877Y-147857121D01*
X133509588Y-148109819D01*
X133543735Y-148369194D01*
X133543735Y-148630806D01*
X133509588Y-148890181D01*
X133441877Y-149142879D01*
X133341762Y-149384577D01*
X133210956Y-149611140D01*
X133051697Y-149818692D01*
X132866709Y-150003680D01*
X132659157Y-150162939D01*
X132432594Y-150293745D01*
X132190896Y-150393860D01*
X131938198Y-150461571D01*
X131678823Y-150495718D01*
X131417211Y-150495718D01*
X131157836Y-150461571D01*
X130905138Y-150393860D01*
X130663440Y-150293745D01*
X130436877Y-150162939D01*
X130229325Y-150003680D01*
X130044337Y-149818692D01*
X129885078Y-149611140D01*
X129754272Y-149384577D01*
X129654157Y-149142879D01*
X129586446Y-148890181D01*
X129552299Y-148630806D01*
X129552299Y-148369194D01*
X129586446Y-148109819D01*
X129654157Y-147857121D01*
X129754272Y-147615423D01*
X129885078Y-147388860D01*
X130044337Y-147181308D01*
X130229325Y-146996320D01*
X130436877Y-146837061D01*
X130663440Y-146706255D01*
X130905138Y-146606140D01*
X131157836Y-146538429D01*
X131417211Y-146504282D01*
X131678823Y-146504282D01*
X131938198Y-146538429D01*
G37*
G36*
X157286214Y-146538429D02*
G01*
X157538912Y-146606140D01*
X157780610Y-146706255D01*
X158007173Y-146837061D01*
X158214725Y-146996320D01*
X158399713Y-147181308D01*
X158558972Y-147388860D01*
X158689778Y-147615423D01*
X158789893Y-147857121D01*
X158857604Y-148109819D01*
X158891751Y-148369194D01*
X158891751Y-148630806D01*
X158857604Y-148890181D01*
X158789893Y-149142879D01*
X158689778Y-149384577D01*
X158558972Y-149611140D01*
X158399713Y-149818692D01*
X158214725Y-150003680D01*
X158007173Y-150162939D01*
X157780610Y-150293745D01*
X157538912Y-150393860D01*
X157286214Y-150461571D01*
X157026839Y-150495718D01*
X156765227Y-150495718D01*
X156505852Y-150461571D01*
X156253154Y-150393860D01*
X156011456Y-150293745D01*
X155784893Y-150162939D01*
X155577341Y-150003680D01*
X155392353Y-149818692D01*
X155233094Y-149611140D01*
X155102288Y-149384577D01*
X155002173Y-149142879D01*
X154934462Y-148890181D01*
X154900315Y-148630806D01*
X154900315Y-148369194D01*
X154934462Y-148109819D01*
X155002173Y-147857121D01*
X155102288Y-147615423D01*
X155233094Y-147388860D01*
X155392353Y-147181308D01*
X155577341Y-146996320D01*
X155784893Y-146837061D01*
X156011456Y-146706255D01*
X156253154Y-146606140D01*
X156505852Y-146538429D01*
X156765227Y-146504282D01*
X157026839Y-146504282D01*
X157286214Y-146538429D01*
G37*
G36*
X182634231Y-146538429D02*
G01*
X182886929Y-146606140D01*
X183128627Y-146706255D01*
X183355190Y-146837061D01*
X183562742Y-146996320D01*
X183747730Y-147181308D01*
X183906989Y-147388860D01*
X184037795Y-147615423D01*
X184137910Y-147857121D01*
X184205621Y-148109819D01*
X184239768Y-148369194D01*
X184239768Y-148630806D01*
X184205621Y-148890181D01*
X184137910Y-149142879D01*
X184037795Y-149384577D01*
X183906989Y-149611140D01*
X183747730Y-149818692D01*
X183562742Y-150003680D01*
X183355190Y-150162939D01*
X183128627Y-150293745D01*
X182886929Y-150393860D01*
X182634231Y-150461571D01*
X182374856Y-150495718D01*
X182113244Y-150495718D01*
X181853869Y-150461571D01*
X181601171Y-150393860D01*
X181359473Y-150293745D01*
X181132910Y-150162939D01*
X180925358Y-150003680D01*
X180740370Y-149818692D01*
X180581111Y-149611140D01*
X180450305Y-149384577D01*
X180350190Y-149142879D01*
X180282479Y-148890181D01*
X180248332Y-148630806D01*
X180248332Y-148369194D01*
X180282479Y-148109819D01*
X180350190Y-147857121D01*
X180450305Y-147615423D01*
X180581111Y-147388860D01*
X180740370Y-147181308D01*
X180925358Y-146996320D01*
X181132910Y-146837061D01*
X181359473Y-146706255D01*
X181601171Y-146606140D01*
X181853869Y-146538429D01*
X182113244Y-146504282D01*
X182374856Y-146504282D01*
X182634231Y-146538429D01*
G37*
G36*
X105580000Y-142340000D02*
G01*
X103980000Y-142340000D01*
X103980000Y-140740000D01*
X105580000Y-140740000D01*
X105580000Y-142340000D01*
G37*
G36*
X130928017Y-142340000D02*
G01*
X129328017Y-142340000D01*
X129328017Y-140740000D01*
X130928017Y-140740000D01*
X130928017Y-142340000D01*
G37*
G36*
X156276033Y-142340000D02*
G01*
X154676033Y-142340000D01*
X154676033Y-140740000D01*
X156276033Y-140740000D01*
X156276033Y-142340000D01*
G37*
G36*
X181624050Y-142340000D02*
G01*
X180024050Y-142340000D01*
X180024050Y-140740000D01*
X181624050Y-140740000D01*
X181624050Y-142340000D01*
G37*
G36*
X107852228Y-139389448D02*
G01*
X107997117Y-139449463D01*
X108127515Y-139536592D01*
X108238408Y-139647485D01*
X108325537Y-139777883D01*
X108385552Y-139922772D01*
X108416148Y-140076586D01*
X108416148Y-140233414D01*
X108385552Y-140387228D01*
X108325537Y-140532117D01*
X108238408Y-140662515D01*
X108127515Y-140773408D01*
X107997117Y-140860537D01*
X107852228Y-140920552D01*
X107698414Y-140951148D01*
X107541586Y-140951148D01*
X107387772Y-140920552D01*
X107242883Y-140860537D01*
X107112485Y-140773408D01*
X107001592Y-140662515D01*
X106914463Y-140532117D01*
X106854448Y-140387228D01*
X106823852Y-140233414D01*
X106823852Y-140076586D01*
X106854448Y-139922772D01*
X106914463Y-139777883D01*
X107001592Y-139647485D01*
X107112485Y-139536592D01*
X107242883Y-139449463D01*
X107387772Y-139389448D01*
X107541586Y-139358852D01*
X107698414Y-139358852D01*
X107852228Y-139389448D01*
G37*
G36*
X133200245Y-139389448D02*
G01*
X133345134Y-139449463D01*
X133475532Y-139536592D01*
X133586425Y-139647485D01*
X133673554Y-139777883D01*
X133733569Y-139922772D01*
X133764165Y-140076586D01*
X133764165Y-140233414D01*
X133733569Y-140387228D01*
X133673554Y-140532117D01*
X133586425Y-140662515D01*
X133475532Y-140773408D01*
X133345134Y-140860537D01*
X133200245Y-140920552D01*
X133046431Y-140951148D01*
X132889603Y-140951148D01*
X132735789Y-140920552D01*
X132590900Y-140860537D01*
X132460502Y-140773408D01*
X132349609Y-140662515D01*
X132262480Y-140532117D01*
X132202465Y-140387228D01*
X132171869Y-140233414D01*
X132171869Y-140076586D01*
X132202465Y-139922772D01*
X132262480Y-139777883D01*
X132349609Y-139647485D01*
X132460502Y-139536592D01*
X132590900Y-139449463D01*
X132735789Y-139389448D01*
X132889603Y-139358852D01*
X133046431Y-139358852D01*
X133200245Y-139389448D01*
G37*
G36*
X158548261Y-139389448D02*
G01*
X158693150Y-139449463D01*
X158823548Y-139536592D01*
X158934441Y-139647485D01*
X159021570Y-139777883D01*
X159081585Y-139922772D01*
X159112181Y-140076586D01*
X159112181Y-140233414D01*
X159081585Y-140387228D01*
X159021570Y-140532117D01*
X158934441Y-140662515D01*
X158823548Y-140773408D01*
X158693150Y-140860537D01*
X158548261Y-140920552D01*
X158394447Y-140951148D01*
X158237619Y-140951148D01*
X158083805Y-140920552D01*
X157938916Y-140860537D01*
X157808518Y-140773408D01*
X157697625Y-140662515D01*
X157610496Y-140532117D01*
X157550481Y-140387228D01*
X157519885Y-140233414D01*
X157519885Y-140076586D01*
X157550481Y-139922772D01*
X157610496Y-139777883D01*
X157697625Y-139647485D01*
X157808518Y-139536592D01*
X157938916Y-139449463D01*
X158083805Y-139389448D01*
X158237619Y-139358852D01*
X158394447Y-139358852D01*
X158548261Y-139389448D01*
G37*
G36*
X183896278Y-139389448D02*
G01*
X184041167Y-139449463D01*
X184171565Y-139536592D01*
X184282458Y-139647485D01*
X184369587Y-139777883D01*
X184429602Y-139922772D01*
X184460198Y-140076586D01*
X184460198Y-140233414D01*
X184429602Y-140387228D01*
X184369587Y-140532117D01*
X184282458Y-140662515D01*
X184171565Y-140773408D01*
X184041167Y-140860537D01*
X183896278Y-140920552D01*
X183742464Y-140951148D01*
X183585636Y-140951148D01*
X183431822Y-140920552D01*
X183286933Y-140860537D01*
X183156535Y-140773408D01*
X183045642Y-140662515D01*
X182958513Y-140532117D01*
X182898498Y-140387228D01*
X182867902Y-140233414D01*
X182867902Y-140076586D01*
X182898498Y-139922772D01*
X182958513Y-139777883D01*
X183045642Y-139647485D01*
X183156535Y-139536592D01*
X183286933Y-139449463D01*
X183431822Y-139389448D01*
X183585636Y-139358852D01*
X183742464Y-139358852D01*
X183896278Y-139389448D01*
G37*
G36*
X105012228Y-138004448D02*
G01*
X105157117Y-138064463D01*
X105287515Y-138151592D01*
X105398408Y-138262485D01*
X105485537Y-138392883D01*
X105545552Y-138537772D01*
X105576148Y-138691586D01*
X105576148Y-138848414D01*
X105545552Y-139002228D01*
X105485537Y-139147117D01*
X105398408Y-139277515D01*
X105287515Y-139388408D01*
X105157117Y-139475537D01*
X105012228Y-139535552D01*
X104858414Y-139566148D01*
X104701586Y-139566148D01*
X104547772Y-139535552D01*
X104402883Y-139475537D01*
X104272485Y-139388408D01*
X104161592Y-139277515D01*
X104074463Y-139147117D01*
X104014448Y-139002228D01*
X103983852Y-138848414D01*
X103983852Y-138691586D01*
X104014448Y-138537772D01*
X104074463Y-138392883D01*
X104161592Y-138262485D01*
X104272485Y-138151592D01*
X104402883Y-138064463D01*
X104547772Y-138004448D01*
X104701586Y-137973852D01*
X104858414Y-137973852D01*
X105012228Y-138004448D01*
G37*
G36*
X130360245Y-138004448D02*
G01*
X130505134Y-138064463D01*
X130635532Y-138151592D01*
X130746425Y-138262485D01*
X130833554Y-138392883D01*
X130893569Y-138537772D01*
X130924165Y-138691586D01*
X130924165Y-138848414D01*
X130893569Y-139002228D01*
X130833554Y-139147117D01*
X130746425Y-139277515D01*
X130635532Y-139388408D01*
X130505134Y-139475537D01*
X130360245Y-139535552D01*
X130206431Y-139566148D01*
X130049603Y-139566148D01*
X129895789Y-139535552D01*
X129750900Y-139475537D01*
X129620502Y-139388408D01*
X129509609Y-139277515D01*
X129422480Y-139147117D01*
X129362465Y-139002228D01*
X129331869Y-138848414D01*
X129331869Y-138691586D01*
X129362465Y-138537772D01*
X129422480Y-138392883D01*
X129509609Y-138262485D01*
X129620502Y-138151592D01*
X129750900Y-138064463D01*
X129895789Y-138004448D01*
X130049603Y-137973852D01*
X130206431Y-137973852D01*
X130360245Y-138004448D01*
G37*
G36*
X155708261Y-138004448D02*
G01*
X155853150Y-138064463D01*
X155983548Y-138151592D01*
X156094441Y-138262485D01*
X156181570Y-138392883D01*
X156241585Y-138537772D01*
X156272181Y-138691586D01*
X156272181Y-138848414D01*
X156241585Y-139002228D01*
X156181570Y-139147117D01*
X156094441Y-139277515D01*
X155983548Y-139388408D01*
X155853150Y-139475537D01*
X155708261Y-139535552D01*
X155554447Y-139566148D01*
X155397619Y-139566148D01*
X155243805Y-139535552D01*
X155098916Y-139475537D01*
X154968518Y-139388408D01*
X154857625Y-139277515D01*
X154770496Y-139147117D01*
X154710481Y-139002228D01*
X154679885Y-138848414D01*
X154679885Y-138691586D01*
X154710481Y-138537772D01*
X154770496Y-138392883D01*
X154857625Y-138262485D01*
X154968518Y-138151592D01*
X155098916Y-138064463D01*
X155243805Y-138004448D01*
X155397619Y-137973852D01*
X155554447Y-137973852D01*
X155708261Y-138004448D01*
G37*
G36*
X181056278Y-138004448D02*
G01*
X181201167Y-138064463D01*
X181331565Y-138151592D01*
X181442458Y-138262485D01*
X181529587Y-138392883D01*
X181589602Y-138537772D01*
X181620198Y-138691586D01*
X181620198Y-138848414D01*
X181589602Y-139002228D01*
X181529587Y-139147117D01*
X181442458Y-139277515D01*
X181331565Y-139388408D01*
X181201167Y-139475537D01*
X181056278Y-139535552D01*
X180902464Y-139566148D01*
X180745636Y-139566148D01*
X180591822Y-139535552D01*
X180446933Y-139475537D01*
X180316535Y-139388408D01*
X180205642Y-139277515D01*
X180118513Y-139147117D01*
X180058498Y-139002228D01*
X180027902Y-138848414D01*
X180027902Y-138691586D01*
X180058498Y-138537772D01*
X180118513Y-138392883D01*
X180205642Y-138262485D01*
X180316535Y-138151592D01*
X180446933Y-138064463D01*
X180591822Y-138004448D01*
X180745636Y-137973852D01*
X180902464Y-137973852D01*
X181056278Y-138004448D01*
G37*
G36*
X107852228Y-136619448D02*
G01*
X107997117Y-136679463D01*
X108127515Y-136766592D01*
X108238408Y-136877485D01*
X108325537Y-137007883D01*
X108385552Y-137152772D01*
X108416148Y-137306586D01*
X108416148Y-137463414D01*
X108385552Y-137617228D01*
X108325537Y-137762117D01*
X108238408Y-137892515D01*
X108127515Y-138003408D01*
X107997117Y-138090537D01*
X107852228Y-138150552D01*
X107698414Y-138181148D01*
X107541586Y-138181148D01*
X107387772Y-138150552D01*
X107242883Y-138090537D01*
X107112485Y-138003408D01*
X107001592Y-137892515D01*
X106914463Y-137762117D01*
X106854448Y-137617228D01*
X106823852Y-137463414D01*
X106823852Y-137306586D01*
X106854448Y-137152772D01*
X106914463Y-137007883D01*
X107001592Y-136877485D01*
X107112485Y-136766592D01*
X107242883Y-136679463D01*
X107387772Y-136619448D01*
X107541586Y-136588852D01*
X107698414Y-136588852D01*
X107852228Y-136619448D01*
G37*
G36*
X133200245Y-136619448D02*
G01*
X133345134Y-136679463D01*
X133475532Y-136766592D01*
X133586425Y-136877485D01*
X133673554Y-137007883D01*
X133733569Y-137152772D01*
X133764165Y-137306586D01*
X133764165Y-137463414D01*
X133733569Y-137617228D01*
X133673554Y-137762117D01*
X133586425Y-137892515D01*
X133475532Y-138003408D01*
X133345134Y-138090537D01*
X133200245Y-138150552D01*
X133046431Y-138181148D01*
X132889603Y-138181148D01*
X132735789Y-138150552D01*
X132590900Y-138090537D01*
X132460502Y-138003408D01*
X132349609Y-137892515D01*
X132262480Y-137762117D01*
X132202465Y-137617228D01*
X132171869Y-137463414D01*
X132171869Y-137306586D01*
X132202465Y-137152772D01*
X132262480Y-137007883D01*
X132349609Y-136877485D01*
X132460502Y-136766592D01*
X132590900Y-136679463D01*
X132735789Y-136619448D01*
X132889603Y-136588852D01*
X133046431Y-136588852D01*
X133200245Y-136619448D01*
G37*
G36*
X158548261Y-136619448D02*
G01*
X158693150Y-136679463D01*
X158823548Y-136766592D01*
X158934441Y-136877485D01*
X159021570Y-137007883D01*
X159081585Y-137152772D01*
X159112181Y-137306586D01*
X159112181Y-137463414D01*
X159081585Y-137617228D01*
X159021570Y-137762117D01*
X158934441Y-137892515D01*
X158823548Y-138003408D01*
X158693150Y-138090537D01*
X158548261Y-138150552D01*
X158394447Y-138181148D01*
X158237619Y-138181148D01*
X158083805Y-138150552D01*
X157938916Y-138090537D01*
X157808518Y-138003408D01*
X157697625Y-137892515D01*
X157610496Y-137762117D01*
X157550481Y-137617228D01*
X157519885Y-137463414D01*
X157519885Y-137306586D01*
X157550481Y-137152772D01*
X157610496Y-137007883D01*
X157697625Y-136877485D01*
X157808518Y-136766592D01*
X157938916Y-136679463D01*
X158083805Y-136619448D01*
X158237619Y-136588852D01*
X158394447Y-136588852D01*
X158548261Y-136619448D01*
G37*
G36*
X183896278Y-136619448D02*
G01*
X184041167Y-136679463D01*
X184171565Y-136766592D01*
X184282458Y-136877485D01*
X184369587Y-137007883D01*
X184429602Y-137152772D01*
X184460198Y-137306586D01*
X184460198Y-137463414D01*
X184429602Y-137617228D01*
X184369587Y-137762117D01*
X184282458Y-137892515D01*
X184171565Y-138003408D01*
X184041167Y-138090537D01*
X183896278Y-138150552D01*
X183742464Y-138181148D01*
X183585636Y-138181148D01*
X183431822Y-138150552D01*
X183286933Y-138090537D01*
X183156535Y-138003408D01*
X183045642Y-137892515D01*
X182958513Y-137762117D01*
X182898498Y-137617228D01*
X182867902Y-137463414D01*
X182867902Y-137306586D01*
X182898498Y-137152772D01*
X182958513Y-137007883D01*
X183045642Y-136877485D01*
X183156535Y-136766592D01*
X183286933Y-136679463D01*
X183431822Y-136619448D01*
X183585636Y-136588852D01*
X183742464Y-136588852D01*
X183896278Y-136619448D01*
G37*
G36*
X105012228Y-135234448D02*
G01*
X105157117Y-135294463D01*
X105287515Y-135381592D01*
X105398408Y-135492485D01*
X105485537Y-135622883D01*
X105545552Y-135767772D01*
X105576148Y-135921586D01*
X105576148Y-136078414D01*
X105545552Y-136232228D01*
X105485537Y-136377117D01*
X105398408Y-136507515D01*
X105287515Y-136618408D01*
X105157117Y-136705537D01*
X105012228Y-136765552D01*
X104858414Y-136796148D01*
X104701586Y-136796148D01*
X104547772Y-136765552D01*
X104402883Y-136705537D01*
X104272485Y-136618408D01*
X104161592Y-136507515D01*
X104074463Y-136377117D01*
X104014448Y-136232228D01*
X103983852Y-136078414D01*
X103983852Y-135921586D01*
X104014448Y-135767772D01*
X104074463Y-135622883D01*
X104161592Y-135492485D01*
X104272485Y-135381592D01*
X104402883Y-135294463D01*
X104547772Y-135234448D01*
X104701586Y-135203852D01*
X104858414Y-135203852D01*
X105012228Y-135234448D01*
G37*
G36*
X130360245Y-135234448D02*
G01*
X130505134Y-135294463D01*
X130635532Y-135381592D01*
X130746425Y-135492485D01*
X130833554Y-135622883D01*
X130893569Y-135767772D01*
X130924165Y-135921586D01*
X130924165Y-136078414D01*
X130893569Y-136232228D01*
X130833554Y-136377117D01*
X130746425Y-136507515D01*
X130635532Y-136618408D01*
X130505134Y-136705537D01*
X130360245Y-136765552D01*
X130206431Y-136796148D01*
X130049603Y-136796148D01*
X129895789Y-136765552D01*
X129750900Y-136705537D01*
X129620502Y-136618408D01*
X129509609Y-136507515D01*
X129422480Y-136377117D01*
X129362465Y-136232228D01*
X129331869Y-136078414D01*
X129331869Y-135921586D01*
X129362465Y-135767772D01*
X129422480Y-135622883D01*
X129509609Y-135492485D01*
X129620502Y-135381592D01*
X129750900Y-135294463D01*
X129895789Y-135234448D01*
X130049603Y-135203852D01*
X130206431Y-135203852D01*
X130360245Y-135234448D01*
G37*
G36*
X155708261Y-135234448D02*
G01*
X155853150Y-135294463D01*
X155983548Y-135381592D01*
X156094441Y-135492485D01*
X156181570Y-135622883D01*
X156241585Y-135767772D01*
X156272181Y-135921586D01*
X156272181Y-136078414D01*
X156241585Y-136232228D01*
X156181570Y-136377117D01*
X156094441Y-136507515D01*
X155983548Y-136618408D01*
X155853150Y-136705537D01*
X155708261Y-136765552D01*
X155554447Y-136796148D01*
X155397619Y-136796148D01*
X155243805Y-136765552D01*
X155098916Y-136705537D01*
X154968518Y-136618408D01*
X154857625Y-136507515D01*
X154770496Y-136377117D01*
X154710481Y-136232228D01*
X154679885Y-136078414D01*
X154679885Y-135921586D01*
X154710481Y-135767772D01*
X154770496Y-135622883D01*
X154857625Y-135492485D01*
X154968518Y-135381592D01*
X155098916Y-135294463D01*
X155243805Y-135234448D01*
X155397619Y-135203852D01*
X155554447Y-135203852D01*
X155708261Y-135234448D01*
G37*
G36*
X181056278Y-135234448D02*
G01*
X181201167Y-135294463D01*
X181331565Y-135381592D01*
X181442458Y-135492485D01*
X181529587Y-135622883D01*
X181589602Y-135767772D01*
X181620198Y-135921586D01*
X181620198Y-136078414D01*
X181589602Y-136232228D01*
X181529587Y-136377117D01*
X181442458Y-136507515D01*
X181331565Y-136618408D01*
X181201167Y-136705537D01*
X181056278Y-136765552D01*
X180902464Y-136796148D01*
X180745636Y-136796148D01*
X180591822Y-136765552D01*
X180446933Y-136705537D01*
X180316535Y-136618408D01*
X180205642Y-136507515D01*
X180118513Y-136377117D01*
X180058498Y-136232228D01*
X180027902Y-136078414D01*
X180027902Y-135921586D01*
X180058498Y-135767772D01*
X180118513Y-135622883D01*
X180205642Y-135492485D01*
X180316535Y-135381592D01*
X180446933Y-135294463D01*
X180591822Y-135234448D01*
X180745636Y-135203852D01*
X180902464Y-135203852D01*
X181056278Y-135234448D01*
G37*
G36*
X107852228Y-133849448D02*
G01*
X107997117Y-133909463D01*
X108127515Y-133996592D01*
X108238408Y-134107485D01*
X108325537Y-134237883D01*
X108385552Y-134382772D01*
X108416148Y-134536586D01*
X108416148Y-134693414D01*
X108385552Y-134847228D01*
X108325537Y-134992117D01*
X108238408Y-135122515D01*
X108127515Y-135233408D01*
X107997117Y-135320537D01*
X107852228Y-135380552D01*
X107698414Y-135411148D01*
X107541586Y-135411148D01*
X107387772Y-135380552D01*
X107242883Y-135320537D01*
X107112485Y-135233408D01*
X107001592Y-135122515D01*
X106914463Y-134992117D01*
X106854448Y-134847228D01*
X106823852Y-134693414D01*
X106823852Y-134536586D01*
X106854448Y-134382772D01*
X106914463Y-134237883D01*
X107001592Y-134107485D01*
X107112485Y-133996592D01*
X107242883Y-133909463D01*
X107387772Y-133849448D01*
X107541586Y-133818852D01*
X107698414Y-133818852D01*
X107852228Y-133849448D01*
G37*
G36*
X133200245Y-133849448D02*
G01*
X133345134Y-133909463D01*
X133475532Y-133996592D01*
X133586425Y-134107485D01*
X133673554Y-134237883D01*
X133733569Y-134382772D01*
X133764165Y-134536586D01*
X133764165Y-134693414D01*
X133733569Y-134847228D01*
X133673554Y-134992117D01*
X133586425Y-135122515D01*
X133475532Y-135233408D01*
X133345134Y-135320537D01*
X133200245Y-135380552D01*
X133046431Y-135411148D01*
X132889603Y-135411148D01*
X132735789Y-135380552D01*
X132590900Y-135320537D01*
X132460502Y-135233408D01*
X132349609Y-135122515D01*
X132262480Y-134992117D01*
X132202465Y-134847228D01*
X132171869Y-134693414D01*
X132171869Y-134536586D01*
X132202465Y-134382772D01*
X132262480Y-134237883D01*
X132349609Y-134107485D01*
X132460502Y-133996592D01*
X132590900Y-133909463D01*
X132735789Y-133849448D01*
X132889603Y-133818852D01*
X133046431Y-133818852D01*
X133200245Y-133849448D01*
G37*
G36*
X158548261Y-133849448D02*
G01*
X158693150Y-133909463D01*
X158823548Y-133996592D01*
X158934441Y-134107485D01*
X159021570Y-134237883D01*
X159081585Y-134382772D01*
X159112181Y-134536586D01*
X159112181Y-134693414D01*
X159081585Y-134847228D01*
X159021570Y-134992117D01*
X158934441Y-135122515D01*
X158823548Y-135233408D01*
X158693150Y-135320537D01*
X158548261Y-135380552D01*
X158394447Y-135411148D01*
X158237619Y-135411148D01*
X158083805Y-135380552D01*
X157938916Y-135320537D01*
X157808518Y-135233408D01*
X157697625Y-135122515D01*
X157610496Y-134992117D01*
X157550481Y-134847228D01*
X157519885Y-134693414D01*
X157519885Y-134536586D01*
X157550481Y-134382772D01*
X157610496Y-134237883D01*
X157697625Y-134107485D01*
X157808518Y-133996592D01*
X157938916Y-133909463D01*
X158083805Y-133849448D01*
X158237619Y-133818852D01*
X158394447Y-133818852D01*
X158548261Y-133849448D01*
G37*
G36*
X183896278Y-133849448D02*
G01*
X184041167Y-133909463D01*
X184171565Y-133996592D01*
X184282458Y-134107485D01*
X184369587Y-134237883D01*
X184429602Y-134382772D01*
X184460198Y-134536586D01*
X184460198Y-134693414D01*
X184429602Y-134847228D01*
X184369587Y-134992117D01*
X184282458Y-135122515D01*
X184171565Y-135233408D01*
X184041167Y-135320537D01*
X183896278Y-135380552D01*
X183742464Y-135411148D01*
X183585636Y-135411148D01*
X183431822Y-135380552D01*
X183286933Y-135320537D01*
X183156535Y-135233408D01*
X183045642Y-135122515D01*
X182958513Y-134992117D01*
X182898498Y-134847228D01*
X182867902Y-134693414D01*
X182867902Y-134536586D01*
X182898498Y-134382772D01*
X182958513Y-134237883D01*
X183045642Y-134107485D01*
X183156535Y-133996592D01*
X183286933Y-133909463D01*
X183431822Y-133849448D01*
X183585636Y-133818852D01*
X183742464Y-133818852D01*
X183896278Y-133849448D01*
G37*
G36*
X105012228Y-132464448D02*
G01*
X105157117Y-132524463D01*
X105287515Y-132611592D01*
X105398408Y-132722485D01*
X105485537Y-132852883D01*
X105545552Y-132997772D01*
X105576148Y-133151586D01*
X105576148Y-133308414D01*
X105545552Y-133462228D01*
X105485537Y-133607117D01*
X105398408Y-133737515D01*
X105287515Y-133848408D01*
X105157117Y-133935537D01*
X105012228Y-133995552D01*
X104858414Y-134026148D01*
X104701586Y-134026148D01*
X104547772Y-133995552D01*
X104402883Y-133935537D01*
X104272485Y-133848408D01*
X104161592Y-133737515D01*
X104074463Y-133607117D01*
X104014448Y-133462228D01*
X103983852Y-133308414D01*
X103983852Y-133151586D01*
X104014448Y-132997772D01*
X104074463Y-132852883D01*
X104161592Y-132722485D01*
X104272485Y-132611592D01*
X104402883Y-132524463D01*
X104547772Y-132464448D01*
X104701586Y-132433852D01*
X104858414Y-132433852D01*
X105012228Y-132464448D01*
G37*
G36*
X130360245Y-132464448D02*
G01*
X130505134Y-132524463D01*
X130635532Y-132611592D01*
X130746425Y-132722485D01*
X130833554Y-132852883D01*
X130893569Y-132997772D01*
X130924165Y-133151586D01*
X130924165Y-133308414D01*
X130893569Y-133462228D01*
X130833554Y-133607117D01*
X130746425Y-133737515D01*
X130635532Y-133848408D01*
X130505134Y-133935537D01*
X130360245Y-133995552D01*
X130206431Y-134026148D01*
X130049603Y-134026148D01*
X129895789Y-133995552D01*
X129750900Y-133935537D01*
X129620502Y-133848408D01*
X129509609Y-133737515D01*
X129422480Y-133607117D01*
X129362465Y-133462228D01*
X129331869Y-133308414D01*
X129331869Y-133151586D01*
X129362465Y-132997772D01*
X129422480Y-132852883D01*
X129509609Y-132722485D01*
X129620502Y-132611592D01*
X129750900Y-132524463D01*
X129895789Y-132464448D01*
X130049603Y-132433852D01*
X130206431Y-132433852D01*
X130360245Y-132464448D01*
G37*
G36*
X155708261Y-132464448D02*
G01*
X155853150Y-132524463D01*
X155983548Y-132611592D01*
X156094441Y-132722485D01*
X156181570Y-132852883D01*
X156241585Y-132997772D01*
X156272181Y-133151586D01*
X156272181Y-133308414D01*
X156241585Y-133462228D01*
X156181570Y-133607117D01*
X156094441Y-133737515D01*
X155983548Y-133848408D01*
X155853150Y-133935537D01*
X155708261Y-133995552D01*
X155554447Y-134026148D01*
X155397619Y-134026148D01*
X155243805Y-133995552D01*
X155098916Y-133935537D01*
X154968518Y-133848408D01*
X154857625Y-133737515D01*
X154770496Y-133607117D01*
X154710481Y-133462228D01*
X154679885Y-133308414D01*
X154679885Y-133151586D01*
X154710481Y-132997772D01*
X154770496Y-132852883D01*
X154857625Y-132722485D01*
X154968518Y-132611592D01*
X155098916Y-132524463D01*
X155243805Y-132464448D01*
X155397619Y-132433852D01*
X155554447Y-132433852D01*
X155708261Y-132464448D01*
G37*
G36*
X181056278Y-132464448D02*
G01*
X181201167Y-132524463D01*
X181331565Y-132611592D01*
X181442458Y-132722485D01*
X181529587Y-132852883D01*
X181589602Y-132997772D01*
X181620198Y-133151586D01*
X181620198Y-133308414D01*
X181589602Y-133462228D01*
X181529587Y-133607117D01*
X181442458Y-133737515D01*
X181331565Y-133848408D01*
X181201167Y-133935537D01*
X181056278Y-133995552D01*
X180902464Y-134026148D01*
X180745636Y-134026148D01*
X180591822Y-133995552D01*
X180446933Y-133935537D01*
X180316535Y-133848408D01*
X180205642Y-133737515D01*
X180118513Y-133607117D01*
X180058498Y-133462228D01*
X180027902Y-133308414D01*
X180027902Y-133151586D01*
X180058498Y-132997772D01*
X180118513Y-132852883D01*
X180205642Y-132722485D01*
X180316535Y-132611592D01*
X180446933Y-132524463D01*
X180591822Y-132464448D01*
X180745636Y-132433852D01*
X180902464Y-132433852D01*
X181056278Y-132464448D01*
G37*
G36*
X107852228Y-131079448D02*
G01*
X107997117Y-131139463D01*
X108127515Y-131226592D01*
X108238408Y-131337485D01*
X108325537Y-131467883D01*
X108385552Y-131612772D01*
X108416148Y-131766586D01*
X108416148Y-131923414D01*
X108385552Y-132077228D01*
X108325537Y-132222117D01*
X108238408Y-132352515D01*
X108127515Y-132463408D01*
X107997117Y-132550537D01*
X107852228Y-132610552D01*
X107698414Y-132641148D01*
X107541586Y-132641148D01*
X107387772Y-132610552D01*
X107242883Y-132550537D01*
X107112485Y-132463408D01*
X107001592Y-132352515D01*
X106914463Y-132222117D01*
X106854448Y-132077228D01*
X106823852Y-131923414D01*
X106823852Y-131766586D01*
X106854448Y-131612772D01*
X106914463Y-131467883D01*
X107001592Y-131337485D01*
X107112485Y-131226592D01*
X107242883Y-131139463D01*
X107387772Y-131079448D01*
X107541586Y-131048852D01*
X107698414Y-131048852D01*
X107852228Y-131079448D01*
G37*
G36*
X133200245Y-131079448D02*
G01*
X133345134Y-131139463D01*
X133475532Y-131226592D01*
X133586425Y-131337485D01*
X133673554Y-131467883D01*
X133733569Y-131612772D01*
X133764165Y-131766586D01*
X133764165Y-131923414D01*
X133733569Y-132077228D01*
X133673554Y-132222117D01*
X133586425Y-132352515D01*
X133475532Y-132463408D01*
X133345134Y-132550537D01*
X133200245Y-132610552D01*
X133046431Y-132641148D01*
X132889603Y-132641148D01*
X132735789Y-132610552D01*
X132590900Y-132550537D01*
X132460502Y-132463408D01*
X132349609Y-132352515D01*
X132262480Y-132222117D01*
X132202465Y-132077228D01*
X132171869Y-131923414D01*
X132171869Y-131766586D01*
X132202465Y-131612772D01*
X132262480Y-131467883D01*
X132349609Y-131337485D01*
X132460502Y-131226592D01*
X132590900Y-131139463D01*
X132735789Y-131079448D01*
X132889603Y-131048852D01*
X133046431Y-131048852D01*
X133200245Y-131079448D01*
G37*
G36*
X158548261Y-131079448D02*
G01*
X158693150Y-131139463D01*
X158823548Y-131226592D01*
X158934441Y-131337485D01*
X159021570Y-131467883D01*
X159081585Y-131612772D01*
X159112181Y-131766586D01*
X159112181Y-131923414D01*
X159081585Y-132077228D01*
X159021570Y-132222117D01*
X158934441Y-132352515D01*
X158823548Y-132463408D01*
X158693150Y-132550537D01*
X158548261Y-132610552D01*
X158394447Y-132641148D01*
X158237619Y-132641148D01*
X158083805Y-132610552D01*
X157938916Y-132550537D01*
X157808518Y-132463408D01*
X157697625Y-132352515D01*
X157610496Y-132222117D01*
X157550481Y-132077228D01*
X157519885Y-131923414D01*
X157519885Y-131766586D01*
X157550481Y-131612772D01*
X157610496Y-131467883D01*
X157697625Y-131337485D01*
X157808518Y-131226592D01*
X157938916Y-131139463D01*
X158083805Y-131079448D01*
X158237619Y-131048852D01*
X158394447Y-131048852D01*
X158548261Y-131079448D01*
G37*
G36*
X183896278Y-131079448D02*
G01*
X184041167Y-131139463D01*
X184171565Y-131226592D01*
X184282458Y-131337485D01*
X184369587Y-131467883D01*
X184429602Y-131612772D01*
X184460198Y-131766586D01*
X184460198Y-131923414D01*
X184429602Y-132077228D01*
X184369587Y-132222117D01*
X184282458Y-132352515D01*
X184171565Y-132463408D01*
X184041167Y-132550537D01*
X183896278Y-132610552D01*
X183742464Y-132641148D01*
X183585636Y-132641148D01*
X183431822Y-132610552D01*
X183286933Y-132550537D01*
X183156535Y-132463408D01*
X183045642Y-132352515D01*
X182958513Y-132222117D01*
X182898498Y-132077228D01*
X182867902Y-131923414D01*
X182867902Y-131766586D01*
X182898498Y-131612772D01*
X182958513Y-131467883D01*
X183045642Y-131337485D01*
X183156535Y-131226592D01*
X183286933Y-131139463D01*
X183431822Y-131079448D01*
X183585636Y-131048852D01*
X183742464Y-131048852D01*
X183896278Y-131079448D01*
G37*
G36*
X105012228Y-129694448D02*
G01*
X105157117Y-129754463D01*
X105287515Y-129841592D01*
X105398408Y-129952485D01*
X105485537Y-130082883D01*
X105545552Y-130227772D01*
X105576148Y-130381586D01*
X105576148Y-130538414D01*
X105545552Y-130692228D01*
X105485537Y-130837117D01*
X105398408Y-130967515D01*
X105287515Y-131078408D01*
X105157117Y-131165537D01*
X105012228Y-131225552D01*
X104858414Y-131256148D01*
X104701586Y-131256148D01*
X104547772Y-131225552D01*
X104402883Y-131165537D01*
X104272485Y-131078408D01*
X104161592Y-130967515D01*
X104074463Y-130837117D01*
X104014448Y-130692228D01*
X103983852Y-130538414D01*
X103983852Y-130381586D01*
X104014448Y-130227772D01*
X104074463Y-130082883D01*
X104161592Y-129952485D01*
X104272485Y-129841592D01*
X104402883Y-129754463D01*
X104547772Y-129694448D01*
X104701586Y-129663852D01*
X104858414Y-129663852D01*
X105012228Y-129694448D01*
G37*
G36*
X130360245Y-129694448D02*
G01*
X130505134Y-129754463D01*
X130635532Y-129841592D01*
X130746425Y-129952485D01*
X130833554Y-130082883D01*
X130893569Y-130227772D01*
X130924165Y-130381586D01*
X130924165Y-130538414D01*
X130893569Y-130692228D01*
X130833554Y-130837117D01*
X130746425Y-130967515D01*
X130635532Y-131078408D01*
X130505134Y-131165537D01*
X130360245Y-131225552D01*
X130206431Y-131256148D01*
X130049603Y-131256148D01*
X129895789Y-131225552D01*
X129750900Y-131165537D01*
X129620502Y-131078408D01*
X129509609Y-130967515D01*
X129422480Y-130837117D01*
X129362465Y-130692228D01*
X129331869Y-130538414D01*
X129331869Y-130381586D01*
X129362465Y-130227772D01*
X129422480Y-130082883D01*
X129509609Y-129952485D01*
X129620502Y-129841592D01*
X129750900Y-129754463D01*
X129895789Y-129694448D01*
X130049603Y-129663852D01*
X130206431Y-129663852D01*
X130360245Y-129694448D01*
G37*
G36*
X155708261Y-129694448D02*
G01*
X155853150Y-129754463D01*
X155983548Y-129841592D01*
X156094441Y-129952485D01*
X156181570Y-130082883D01*
X156241585Y-130227772D01*
X156272181Y-130381586D01*
X156272181Y-130538414D01*
X156241585Y-130692228D01*
X156181570Y-130837117D01*
X156094441Y-130967515D01*
X155983548Y-131078408D01*
X155853150Y-131165537D01*
X155708261Y-131225552D01*
X155554447Y-131256148D01*
X155397619Y-131256148D01*
X155243805Y-131225552D01*
X155098916Y-131165537D01*
X154968518Y-131078408D01*
X154857625Y-130967515D01*
X154770496Y-130837117D01*
X154710481Y-130692228D01*
X154679885Y-130538414D01*
X154679885Y-130381586D01*
X154710481Y-130227772D01*
X154770496Y-130082883D01*
X154857625Y-129952485D01*
X154968518Y-129841592D01*
X155098916Y-129754463D01*
X155243805Y-129694448D01*
X155397619Y-129663852D01*
X155554447Y-129663852D01*
X155708261Y-129694448D01*
G37*
G36*
X181056278Y-129694448D02*
G01*
X181201167Y-129754463D01*
X181331565Y-129841592D01*
X181442458Y-129952485D01*
X181529587Y-130082883D01*
X181589602Y-130227772D01*
X181620198Y-130381586D01*
X181620198Y-130538414D01*
X181589602Y-130692228D01*
X181529587Y-130837117D01*
X181442458Y-130967515D01*
X181331565Y-131078408D01*
X181201167Y-131165537D01*
X181056278Y-131225552D01*
X180902464Y-131256148D01*
X180745636Y-131256148D01*
X180591822Y-131225552D01*
X180446933Y-131165537D01*
X180316535Y-131078408D01*
X180205642Y-130967515D01*
X180118513Y-130837117D01*
X180058498Y-130692228D01*
X180027902Y-130538414D01*
X180027902Y-130381586D01*
X180058498Y-130227772D01*
X180118513Y-130082883D01*
X180205642Y-129952485D01*
X180316535Y-129841592D01*
X180446933Y-129754463D01*
X180591822Y-129694448D01*
X180745636Y-129663852D01*
X180902464Y-129663852D01*
X181056278Y-129694448D01*
G37*
G36*
X106590181Y-121538429D02*
G01*
X106842879Y-121606140D01*
X107084577Y-121706255D01*
X107311140Y-121837061D01*
X107518692Y-121996320D01*
X107703680Y-122181308D01*
X107862939Y-122388860D01*
X107993745Y-122615423D01*
X108093860Y-122857121D01*
X108161571Y-123109819D01*
X108195718Y-123369194D01*
X108195718Y-123630806D01*
X108161571Y-123890181D01*
X108093860Y-124142879D01*
X107993745Y-124384577D01*
X107862939Y-124611140D01*
X107703680Y-124818692D01*
X107518692Y-125003680D01*
X107311140Y-125162939D01*
X107084577Y-125293745D01*
X106842879Y-125393860D01*
X106590181Y-125461571D01*
X106330806Y-125495718D01*
X106069194Y-125495718D01*
X105809819Y-125461571D01*
X105557121Y-125393860D01*
X105315423Y-125293745D01*
X105088860Y-125162939D01*
X104881308Y-125003680D01*
X104696320Y-124818692D01*
X104537061Y-124611140D01*
X104406255Y-124384577D01*
X104306140Y-124142879D01*
X104238429Y-123890181D01*
X104204282Y-123630806D01*
X104204282Y-123369194D01*
X104238429Y-123109819D01*
X104306140Y-122857121D01*
X104406255Y-122615423D01*
X104537061Y-122388860D01*
X104696320Y-122181308D01*
X104881308Y-121996320D01*
X105088860Y-121837061D01*
X105315423Y-121706255D01*
X105557121Y-121606140D01*
X105809819Y-121538429D01*
X106069194Y-121504282D01*
X106330806Y-121504282D01*
X106590181Y-121538429D01*
G37*
G36*
X131938198Y-121538429D02*
G01*
X132190896Y-121606140D01*
X132432594Y-121706255D01*
X132659157Y-121837061D01*
X132866709Y-121996320D01*
X133051697Y-122181308D01*
X133210956Y-122388860D01*
X133341762Y-122615423D01*
X133441877Y-122857121D01*
X133509588Y-123109819D01*
X133543735Y-123369194D01*
X133543735Y-123630806D01*
X133509588Y-123890181D01*
X133441877Y-124142879D01*
X133341762Y-124384577D01*
X133210956Y-124611140D01*
X133051697Y-124818692D01*
X132866709Y-125003680D01*
X132659157Y-125162939D01*
X132432594Y-125293745D01*
X132190896Y-125393860D01*
X131938198Y-125461571D01*
X131678823Y-125495718D01*
X131417211Y-125495718D01*
X131157836Y-125461571D01*
X130905138Y-125393860D01*
X130663440Y-125293745D01*
X130436877Y-125162939D01*
X130229325Y-125003680D01*
X130044337Y-124818692D01*
X129885078Y-124611140D01*
X129754272Y-124384577D01*
X129654157Y-124142879D01*
X129586446Y-123890181D01*
X129552299Y-123630806D01*
X129552299Y-123369194D01*
X129586446Y-123109819D01*
X129654157Y-122857121D01*
X129754272Y-122615423D01*
X129885078Y-122388860D01*
X130044337Y-122181308D01*
X130229325Y-121996320D01*
X130436877Y-121837061D01*
X130663440Y-121706255D01*
X130905138Y-121606140D01*
X131157836Y-121538429D01*
X131417211Y-121504282D01*
X131678823Y-121504282D01*
X131938198Y-121538429D01*
G37*
G36*
X157286214Y-121538429D02*
G01*
X157538912Y-121606140D01*
X157780610Y-121706255D01*
X158007173Y-121837061D01*
X158214725Y-121996320D01*
X158399713Y-122181308D01*
X158558972Y-122388860D01*
X158689778Y-122615423D01*
X158789893Y-122857121D01*
X158857604Y-123109819D01*
X158891751Y-123369194D01*
X158891751Y-123630806D01*
X158857604Y-123890181D01*
X158789893Y-124142879D01*
X158689778Y-124384577D01*
X158558972Y-124611140D01*
X158399713Y-124818692D01*
X158214725Y-125003680D01*
X158007173Y-125162939D01*
X157780610Y-125293745D01*
X157538912Y-125393860D01*
X157286214Y-125461571D01*
X157026839Y-125495718D01*
X156765227Y-125495718D01*
X156505852Y-125461571D01*
X156253154Y-125393860D01*
X156011456Y-125293745D01*
X155784893Y-125162939D01*
X155577341Y-125003680D01*
X155392353Y-124818692D01*
X155233094Y-124611140D01*
X155102288Y-124384577D01*
X155002173Y-124142879D01*
X154934462Y-123890181D01*
X154900315Y-123630806D01*
X154900315Y-123369194D01*
X154934462Y-123109819D01*
X155002173Y-122857121D01*
X155102288Y-122615423D01*
X155233094Y-122388860D01*
X155392353Y-122181308D01*
X155577341Y-121996320D01*
X155784893Y-121837061D01*
X156011456Y-121706255D01*
X156253154Y-121606140D01*
X156505852Y-121538429D01*
X156765227Y-121504282D01*
X157026839Y-121504282D01*
X157286214Y-121538429D01*
G37*
G36*
X182634231Y-121538429D02*
G01*
X182886929Y-121606140D01*
X183128627Y-121706255D01*
X183355190Y-121837061D01*
X183562742Y-121996320D01*
X183747730Y-122181308D01*
X183906989Y-122388860D01*
X184037795Y-122615423D01*
X184137910Y-122857121D01*
X184205621Y-123109819D01*
X184239768Y-123369194D01*
X184239768Y-123630806D01*
X184205621Y-123890181D01*
X184137910Y-124142879D01*
X184037795Y-124384577D01*
X183906989Y-124611140D01*
X183747730Y-124818692D01*
X183562742Y-125003680D01*
X183355190Y-125162939D01*
X183128627Y-125293745D01*
X182886929Y-125393860D01*
X182634231Y-125461571D01*
X182374856Y-125495718D01*
X182113244Y-125495718D01*
X181853869Y-125461571D01*
X181601171Y-125393860D01*
X181359473Y-125293745D01*
X181132910Y-125162939D01*
X180925358Y-125003680D01*
X180740370Y-124818692D01*
X180581111Y-124611140D01*
X180450305Y-124384577D01*
X180350190Y-124142879D01*
X180282479Y-123890181D01*
X180248332Y-123630806D01*
X180248332Y-123369194D01*
X180282479Y-123109819D01*
X180350190Y-122857121D01*
X180450305Y-122615423D01*
X180581111Y-122388860D01*
X180740370Y-122181308D01*
X180925358Y-121996320D01*
X181132910Y-121837061D01*
X181359473Y-121706255D01*
X181601171Y-121606140D01*
X181853869Y-121538429D01*
X182113244Y-121504282D01*
X182374856Y-121504282D01*
X182634231Y-121538429D01*
G37*
G36*
X94943891Y-88387442D02*
G01*
X95233614Y-88453569D01*
X95514111Y-88551719D01*
X95781855Y-88680658D01*
X96033479Y-88838764D01*
X96265818Y-89024048D01*
X96475952Y-89234182D01*
X96661236Y-89466521D01*
X96819342Y-89718145D01*
X96948281Y-89985889D01*
X97046431Y-90266386D01*
X97112558Y-90556109D01*
X97145831Y-90851413D01*
X97145831Y-91148587D01*
X97112558Y-91443891D01*
X97046431Y-91733614D01*
X96948281Y-92014111D01*
X96819342Y-92281855D01*
X96661236Y-92533479D01*
X96475952Y-92765818D01*
X96265818Y-92975952D01*
X96033479Y-93161236D01*
X95781855Y-93319342D01*
X95514111Y-93448281D01*
X95233614Y-93546431D01*
X94943891Y-93612558D01*
X94648587Y-93645831D01*
X94351413Y-93645831D01*
X94056109Y-93612558D01*
X93766386Y-93546431D01*
X93485889Y-93448281D01*
X93218145Y-93319342D01*
X92966521Y-93161236D01*
X92734182Y-92975952D01*
X92524048Y-92765818D01*
X92338764Y-92533479D01*
X92180658Y-92281855D01*
X92051719Y-92014111D01*
X91953569Y-91733614D01*
X91887442Y-91443891D01*
X91854169Y-91148587D01*
X91854169Y-90851413D01*
X91887442Y-90556109D01*
X91953569Y-90266386D01*
X92051719Y-89985889D01*
X92180658Y-89718145D01*
X92338764Y-89466521D01*
X92524048Y-89234182D01*
X92734182Y-89024048D01*
X92966521Y-88838764D01*
X93218145Y-88680658D01*
X93485889Y-88551719D01*
X93766386Y-88453569D01*
X94056109Y-88387442D01*
X94351413Y-88354169D01*
X94648587Y-88354169D01*
X94943891Y-88387442D01*
G37*
G36*
X182943891Y-88387442D02*
G01*
X183233614Y-88453569D01*
X183514111Y-88551719D01*
X183781855Y-88680658D01*
X184033479Y-88838764D01*
X184265818Y-89024048D01*
X184475952Y-89234182D01*
X184661236Y-89466521D01*
X184819342Y-89718145D01*
X184948281Y-89985889D01*
X185046431Y-90266386D01*
X185112558Y-90556109D01*
X185145831Y-90851413D01*
X185145831Y-91148587D01*
X185112558Y-91443891D01*
X185046431Y-91733614D01*
X184948281Y-92014111D01*
X184819342Y-92281855D01*
X184661236Y-92533479D01*
X184475952Y-92765818D01*
X184265818Y-92975952D01*
X184033479Y-93161236D01*
X183781855Y-93319342D01*
X183514111Y-93448281D01*
X183233614Y-93546431D01*
X182943891Y-93612558D01*
X182648587Y-93645831D01*
X182351413Y-93645831D01*
X182056109Y-93612558D01*
X181766386Y-93546431D01*
X181485889Y-93448281D01*
X181218145Y-93319342D01*
X180966521Y-93161236D01*
X180734182Y-92975952D01*
X180524048Y-92765818D01*
X180338764Y-92533479D01*
X180180658Y-92281855D01*
X180051719Y-92014111D01*
X179953569Y-91733614D01*
X179887442Y-91443891D01*
X179854169Y-91148587D01*
X179854169Y-90851413D01*
X179887442Y-90556109D01*
X179953569Y-90266386D01*
X180051719Y-89985889D01*
X180180658Y-89718145D01*
X180338764Y-89466521D01*
X180524048Y-89234182D01*
X180734182Y-89024048D01*
X180966521Y-88838764D01*
X181218145Y-88680658D01*
X181485889Y-88551719D01*
X181766386Y-88453569D01*
X182056109Y-88387442D01*
X182351413Y-88354169D01*
X182648587Y-88354169D01*
X182943891Y-88387442D01*
G37*
G36*
X129677510Y-76793296D02*
G01*
X129813218Y-76849507D01*
X129935351Y-76931114D01*
X130039217Y-77034980D01*
X130120824Y-77157113D01*
X130177035Y-77292821D01*
X130205692Y-77436887D01*
X130205692Y-77583775D01*
X130177035Y-77727841D01*
X130120824Y-77863549D01*
X130039217Y-77985682D01*
X129935351Y-78089548D01*
X129813218Y-78171155D01*
X129677510Y-78227366D01*
X129533444Y-78256023D01*
X129386556Y-78256023D01*
X129242490Y-78227366D01*
X129106782Y-78171155D01*
X128984649Y-78089548D01*
X128880783Y-77985682D01*
X128799176Y-77863549D01*
X128742965Y-77727841D01*
X128714308Y-77583775D01*
X128714308Y-77436887D01*
X128742965Y-77292821D01*
X128799176Y-77157113D01*
X128880783Y-77034980D01*
X128984649Y-76931114D01*
X129106782Y-76849507D01*
X129242490Y-76793296D01*
X129386556Y-76764639D01*
X129533444Y-76764639D01*
X129677510Y-76793296D01*
G37*
G36*
X132447510Y-76793296D02*
G01*
X132583218Y-76849507D01*
X132705351Y-76931114D01*
X132809217Y-77034980D01*
X132890824Y-77157113D01*
X132947035Y-77292821D01*
X132975692Y-77436887D01*
X132975692Y-77583775D01*
X132947035Y-77727841D01*
X132890824Y-77863549D01*
X132809217Y-77985682D01*
X132705351Y-78089548D01*
X132583218Y-78171155D01*
X132447510Y-78227366D01*
X132303444Y-78256023D01*
X132156556Y-78256023D01*
X132012490Y-78227366D01*
X131876782Y-78171155D01*
X131754649Y-78089548D01*
X131650783Y-77985682D01*
X131569176Y-77863549D01*
X131512965Y-77727841D01*
X131484308Y-77583775D01*
X131484308Y-77436887D01*
X131512965Y-77292821D01*
X131569176Y-77157113D01*
X131650783Y-77034980D01*
X131754649Y-76931114D01*
X131876782Y-76849507D01*
X132012490Y-76793296D01*
X132156556Y-76764639D01*
X132303444Y-76764639D01*
X132447510Y-76793296D01*
G37*
G36*
X135217509Y-76793296D02*
G01*
X135353217Y-76849507D01*
X135475350Y-76931114D01*
X135579216Y-77034980D01*
X135660823Y-77157113D01*
X135717034Y-77292821D01*
X135745691Y-77436887D01*
X135745691Y-77583775D01*
X135717034Y-77727841D01*
X135660823Y-77863549D01*
X135579216Y-77985682D01*
X135475350Y-78089548D01*
X135353217Y-78171155D01*
X135217509Y-78227366D01*
X135073443Y-78256023D01*
X134926555Y-78256023D01*
X134782489Y-78227366D01*
X134646781Y-78171155D01*
X134524648Y-78089548D01*
X134420782Y-77985682D01*
X134339175Y-77863549D01*
X134282964Y-77727841D01*
X134254307Y-77583775D01*
X134254307Y-77436887D01*
X134282964Y-77292821D01*
X134339175Y-77157113D01*
X134420782Y-77034980D01*
X134524648Y-76931114D01*
X134646781Y-76849507D01*
X134782489Y-76793296D01*
X134926555Y-76764639D01*
X135073443Y-76764639D01*
X135217509Y-76793296D01*
G37*
G36*
X137987509Y-76793296D02*
G01*
X138123217Y-76849507D01*
X138245350Y-76931114D01*
X138349216Y-77034980D01*
X138430823Y-77157113D01*
X138487034Y-77292821D01*
X138515691Y-77436887D01*
X138515691Y-77583775D01*
X138487034Y-77727841D01*
X138430823Y-77863549D01*
X138349216Y-77985682D01*
X138245350Y-78089548D01*
X138123217Y-78171155D01*
X137987509Y-78227366D01*
X137843443Y-78256023D01*
X137696555Y-78256023D01*
X137552489Y-78227366D01*
X137416781Y-78171155D01*
X137294648Y-78089548D01*
X137190782Y-77985682D01*
X137109175Y-77863549D01*
X137052964Y-77727841D01*
X137024307Y-77583775D01*
X137024307Y-77436887D01*
X137052964Y-77292821D01*
X137109175Y-77157113D01*
X137190782Y-77034980D01*
X137294648Y-76931114D01*
X137416781Y-76849507D01*
X137552489Y-76793296D01*
X137696555Y-76764639D01*
X137843443Y-76764639D01*
X137987509Y-76793296D01*
G37*
G36*
X140757508Y-76793296D02*
G01*
X140893216Y-76849507D01*
X141015349Y-76931114D01*
X141119215Y-77034980D01*
X141200822Y-77157113D01*
X141257033Y-77292821D01*
X141285690Y-77436887D01*
X141285690Y-77583775D01*
X141257033Y-77727841D01*
X141200822Y-77863549D01*
X141119215Y-77985682D01*
X141015349Y-78089548D01*
X140893216Y-78171155D01*
X140757508Y-78227366D01*
X140613442Y-78256023D01*
X140466554Y-78256023D01*
X140322488Y-78227366D01*
X140186780Y-78171155D01*
X140064647Y-78089548D01*
X139960781Y-77985682D01*
X139879174Y-77863549D01*
X139822963Y-77727841D01*
X139794306Y-77583775D01*
X139794306Y-77436887D01*
X139822963Y-77292821D01*
X139879174Y-77157113D01*
X139960781Y-77034980D01*
X140064647Y-76931114D01*
X140186780Y-76849507D01*
X140322488Y-76793296D01*
X140466554Y-76764639D01*
X140613442Y-76764639D01*
X140757508Y-76793296D01*
G37*
G36*
X162677510Y-76793296D02*
G01*
X162813218Y-76849507D01*
X162935351Y-76931114D01*
X163039217Y-77034980D01*
X163120824Y-77157113D01*
X163177035Y-77292821D01*
X163205692Y-77436887D01*
X163205692Y-77583775D01*
X163177035Y-77727841D01*
X163120824Y-77863549D01*
X163039217Y-77985682D01*
X162935351Y-78089548D01*
X162813218Y-78171155D01*
X162677510Y-78227366D01*
X162533444Y-78256023D01*
X162386556Y-78256023D01*
X162242490Y-78227366D01*
X162106782Y-78171155D01*
X161984649Y-78089548D01*
X161880783Y-77985682D01*
X161799176Y-77863549D01*
X161742965Y-77727841D01*
X161714308Y-77583775D01*
X161714308Y-77436887D01*
X161742965Y-77292821D01*
X161799176Y-77157113D01*
X161880783Y-77034980D01*
X161984649Y-76931114D01*
X162106782Y-76849507D01*
X162242490Y-76793296D01*
X162386556Y-76764639D01*
X162533444Y-76764639D01*
X162677510Y-76793296D01*
G37*
G36*
X165447510Y-76793296D02*
G01*
X165583218Y-76849507D01*
X165705351Y-76931114D01*
X165809217Y-77034980D01*
X165890824Y-77157113D01*
X165947035Y-77292821D01*
X165975692Y-77436887D01*
X165975692Y-77583775D01*
X165947035Y-77727841D01*
X165890824Y-77863549D01*
X165809217Y-77985682D01*
X165705351Y-78089548D01*
X165583218Y-78171155D01*
X165447510Y-78227366D01*
X165303444Y-78256023D01*
X165156556Y-78256023D01*
X165012490Y-78227366D01*
X164876782Y-78171155D01*
X164754649Y-78089548D01*
X164650783Y-77985682D01*
X164569176Y-77863549D01*
X164512965Y-77727841D01*
X164484308Y-77583775D01*
X164484308Y-77436887D01*
X164512965Y-77292821D01*
X164569176Y-77157113D01*
X164650783Y-77034980D01*
X164754649Y-76931114D01*
X164876782Y-76849507D01*
X165012490Y-76793296D01*
X165156556Y-76764639D01*
X165303444Y-76764639D01*
X165447510Y-76793296D01*
G37*
G36*
X168217509Y-76793296D02*
G01*
X168353217Y-76849507D01*
X168475350Y-76931114D01*
X168579216Y-77034980D01*
X168660823Y-77157113D01*
X168717034Y-77292821D01*
X168745691Y-77436887D01*
X168745691Y-77583775D01*
X168717034Y-77727841D01*
X168660823Y-77863549D01*
X168579216Y-77985682D01*
X168475350Y-78089548D01*
X168353217Y-78171155D01*
X168217509Y-78227366D01*
X168073443Y-78256023D01*
X167926555Y-78256023D01*
X167782489Y-78227366D01*
X167646781Y-78171155D01*
X167524648Y-78089548D01*
X167420782Y-77985682D01*
X167339175Y-77863549D01*
X167282964Y-77727841D01*
X167254307Y-77583775D01*
X167254307Y-77436887D01*
X167282964Y-77292821D01*
X167339175Y-77157113D01*
X167420782Y-77034980D01*
X167524648Y-76931114D01*
X167646781Y-76849507D01*
X167782489Y-76793296D01*
X167926555Y-76764639D01*
X168073443Y-76764639D01*
X168217509Y-76793296D01*
G37*
G36*
X170987509Y-76793296D02*
G01*
X171123217Y-76849507D01*
X171245350Y-76931114D01*
X171349216Y-77034980D01*
X171430823Y-77157113D01*
X171487034Y-77292821D01*
X171515691Y-77436887D01*
X171515691Y-77583775D01*
X171487034Y-77727841D01*
X171430823Y-77863549D01*
X171349216Y-77985682D01*
X171245350Y-78089548D01*
X171123217Y-78171155D01*
X170987509Y-78227366D01*
X170843443Y-78256023D01*
X170696555Y-78256023D01*
X170552489Y-78227366D01*
X170416781Y-78171155D01*
X170294648Y-78089548D01*
X170190782Y-77985682D01*
X170109175Y-77863549D01*
X170052964Y-77727841D01*
X170024307Y-77583775D01*
X170024307Y-77436887D01*
X170052964Y-77292821D01*
X170109175Y-77157113D01*
X170190782Y-77034980D01*
X170294648Y-76931114D01*
X170416781Y-76849507D01*
X170552489Y-76793296D01*
X170696555Y-76764639D01*
X170843443Y-76764639D01*
X170987509Y-76793296D01*
G37*
G36*
X173757508Y-76793296D02*
G01*
X173893216Y-76849507D01*
X174015349Y-76931114D01*
X174119215Y-77034980D01*
X174200822Y-77157113D01*
X174257033Y-77292821D01*
X174285690Y-77436887D01*
X174285690Y-77583775D01*
X174257033Y-77727841D01*
X174200822Y-77863549D01*
X174119215Y-77985682D01*
X174015349Y-78089548D01*
X173893216Y-78171155D01*
X173757508Y-78227366D01*
X173613442Y-78256023D01*
X173466554Y-78256023D01*
X173322488Y-78227366D01*
X173186780Y-78171155D01*
X173064647Y-78089548D01*
X172960781Y-77985682D01*
X172879174Y-77863549D01*
X172822963Y-77727841D01*
X172794306Y-77583775D01*
X172794306Y-77436887D01*
X172822963Y-77292821D01*
X172879174Y-77157113D01*
X172960781Y-77034980D01*
X173064647Y-76931114D01*
X173186780Y-76849507D01*
X173322488Y-76793296D01*
X173466554Y-76764639D01*
X173613442Y-76764639D01*
X173757508Y-76793296D01*
G37*
G36*
X122623802Y-74594420D02*
G01*
X122634535Y-74594420D01*
X122687390Y-74602791D01*
X122827066Y-74621180D01*
X122861148Y-74630312D01*
X122890417Y-74634948D01*
X122946702Y-74653236D01*
X123035655Y-74677071D01*
X123092409Y-74700579D01*
X123136809Y-74715006D01*
X123178406Y-74736201D01*
X123235162Y-74759710D01*
X123314910Y-74805753D01*
X123367644Y-74832622D01*
X123391618Y-74850040D01*
X123422176Y-74867683D01*
X123533956Y-74953455D01*
X123577238Y-74984901D01*
X123584824Y-74992487D01*
X123593489Y-74999136D01*
X123746193Y-75151840D01*
X123752841Y-75160504D01*
X123760429Y-75168092D01*
X123791878Y-75211379D01*
X123877646Y-75323153D01*
X123895287Y-75353708D01*
X123912708Y-75377686D01*
X123939580Y-75430425D01*
X123985619Y-75510167D01*
X124009125Y-75566917D01*
X124030324Y-75608521D01*
X124044752Y-75652926D01*
X124068258Y-75709674D01*
X124092089Y-75798614D01*
X124110382Y-75854913D01*
X124115018Y-75884188D01*
X124124149Y-75918263D01*
X124142536Y-76057928D01*
X124150910Y-76110795D01*
X124150910Y-76121528D01*
X124152336Y-76132360D01*
X124152336Y-76348301D01*
X124150910Y-76359132D01*
X124150910Y-76369867D01*
X124142535Y-76422738D01*
X124124149Y-76562398D01*
X124115019Y-76596470D01*
X124110382Y-76625749D01*
X124092087Y-76682052D01*
X124068258Y-76770987D01*
X124044753Y-76827730D01*
X124030324Y-76872141D01*
X124009123Y-76913749D01*
X123985619Y-76970494D01*
X123939584Y-77050227D01*
X123912708Y-77102976D01*
X123895284Y-77126957D01*
X123877646Y-77157508D01*
X123791892Y-77269264D01*
X123760429Y-77312570D01*
X123752838Y-77320160D01*
X123746193Y-77328821D01*
X123593489Y-77481525D01*
X123584828Y-77488170D01*
X123577238Y-77495761D01*
X123533932Y-77527224D01*
X123422176Y-77612978D01*
X123391625Y-77630616D01*
X123367644Y-77648040D01*
X123314895Y-77674916D01*
X123235162Y-77720951D01*
X123178417Y-77744455D01*
X123136809Y-77765656D01*
X123092398Y-77780085D01*
X123035655Y-77803590D01*
X122946720Y-77827419D01*
X122890417Y-77845714D01*
X122861138Y-77850351D01*
X122827066Y-77859481D01*
X122687403Y-77877868D01*
X122634535Y-77886242D01*
X122623801Y-77886242D01*
X122612970Y-77887668D01*
X122397028Y-77887668D01*
X122386197Y-77886242D01*
X122375463Y-77886242D01*
X122322596Y-77877868D01*
X122182931Y-77859481D01*
X122148856Y-77850350D01*
X122119581Y-77845714D01*
X122063282Y-77827421D01*
X121974342Y-77803590D01*
X121917594Y-77780084D01*
X121873189Y-77765656D01*
X121831585Y-77744457D01*
X121774835Y-77720951D01*
X121695093Y-77674912D01*
X121642354Y-77648040D01*
X121618376Y-77630619D01*
X121587821Y-77612978D01*
X121476047Y-77527210D01*
X121432760Y-77495761D01*
X121425172Y-77488173D01*
X121416508Y-77481525D01*
X121263804Y-77328821D01*
X121257155Y-77320156D01*
X121249569Y-77312570D01*
X121218123Y-77269288D01*
X121132351Y-77157508D01*
X121114708Y-77126950D01*
X121097290Y-77102976D01*
X121070421Y-77050242D01*
X121024378Y-76970494D01*
X121000869Y-76913738D01*
X120979674Y-76872141D01*
X120965247Y-76827741D01*
X120941739Y-76770987D01*
X120917904Y-76682034D01*
X120899616Y-76625749D01*
X120894980Y-76596480D01*
X120885848Y-76562398D01*
X120867460Y-76422725D01*
X120859088Y-76369867D01*
X120859088Y-76359132D01*
X120857662Y-76348301D01*
X120857662Y-76132360D01*
X120859088Y-76121528D01*
X120859088Y-76110795D01*
X120867459Y-76057941D01*
X120885848Y-75918263D01*
X120894980Y-75884179D01*
X120899616Y-75854913D01*
X120917902Y-75798632D01*
X120941739Y-75709674D01*
X120965249Y-75652915D01*
X120979674Y-75608521D01*
X121000866Y-75566927D01*
X121024378Y-75510167D01*
X121070425Y-75430410D01*
X121097290Y-75377686D01*
X121114705Y-75353715D01*
X121132351Y-75323153D01*
X121218136Y-75211354D01*
X121249569Y-75168092D01*
X121257152Y-75160508D01*
X121263804Y-75151840D01*
X121416508Y-74999136D01*
X121425176Y-74992484D01*
X121432760Y-74984901D01*
X121476022Y-74953468D01*
X121587821Y-74867683D01*
X121618383Y-74850037D01*
X121642354Y-74832622D01*
X121695078Y-74805757D01*
X121774835Y-74759710D01*
X121831595Y-74736198D01*
X121873189Y-74715006D01*
X121917583Y-74700581D01*
X121974342Y-74677071D01*
X122063300Y-74653234D01*
X122119581Y-74634948D01*
X122148847Y-74630312D01*
X122182931Y-74621180D01*
X122322609Y-74602791D01*
X122375463Y-74594420D01*
X122386196Y-74594420D01*
X122397028Y-74592994D01*
X122612970Y-74592994D01*
X122623802Y-74594420D01*
G37*
G36*
X147613802Y-74594420D02*
G01*
X147624535Y-74594420D01*
X147677390Y-74602791D01*
X147817066Y-74621180D01*
X147851148Y-74630312D01*
X147880417Y-74634948D01*
X147936702Y-74653236D01*
X148025655Y-74677071D01*
X148082409Y-74700579D01*
X148126809Y-74715006D01*
X148168406Y-74736201D01*
X148225162Y-74759710D01*
X148304910Y-74805753D01*
X148357644Y-74832622D01*
X148381618Y-74850040D01*
X148412176Y-74867683D01*
X148523956Y-74953455D01*
X148567238Y-74984901D01*
X148574824Y-74992487D01*
X148583489Y-74999136D01*
X148736193Y-75151840D01*
X148742841Y-75160504D01*
X148750429Y-75168092D01*
X148781878Y-75211379D01*
X148867646Y-75323153D01*
X148885287Y-75353708D01*
X148902708Y-75377686D01*
X148929580Y-75430425D01*
X148975619Y-75510167D01*
X148999125Y-75566917D01*
X149020324Y-75608521D01*
X149034752Y-75652926D01*
X149058258Y-75709674D01*
X149082089Y-75798614D01*
X149100382Y-75854913D01*
X149105018Y-75884188D01*
X149114149Y-75918263D01*
X149132536Y-76057928D01*
X149140910Y-76110795D01*
X149140910Y-76121528D01*
X149142336Y-76132360D01*
X149142336Y-76348301D01*
X149140910Y-76359132D01*
X149140910Y-76369867D01*
X149132535Y-76422738D01*
X149114149Y-76562398D01*
X149105019Y-76596470D01*
X149100382Y-76625749D01*
X149082087Y-76682052D01*
X149058258Y-76770987D01*
X149034753Y-76827730D01*
X149020324Y-76872141D01*
X148999123Y-76913749D01*
X148975619Y-76970494D01*
X148929584Y-77050227D01*
X148902708Y-77102976D01*
X148885284Y-77126957D01*
X148867646Y-77157508D01*
X148781892Y-77269264D01*
X148750429Y-77312570D01*
X148742838Y-77320160D01*
X148736193Y-77328821D01*
X148583489Y-77481525D01*
X148574828Y-77488170D01*
X148567238Y-77495761D01*
X148523932Y-77527224D01*
X148412176Y-77612978D01*
X148381625Y-77630616D01*
X148357644Y-77648040D01*
X148304895Y-77674916D01*
X148225162Y-77720951D01*
X148168417Y-77744455D01*
X148126809Y-77765656D01*
X148082398Y-77780085D01*
X148025655Y-77803590D01*
X147936720Y-77827419D01*
X147880417Y-77845714D01*
X147851138Y-77850351D01*
X147817066Y-77859481D01*
X147677403Y-77877868D01*
X147624535Y-77886242D01*
X147613801Y-77886242D01*
X147602970Y-77887668D01*
X147387028Y-77887668D01*
X147376197Y-77886242D01*
X147365463Y-77886242D01*
X147312596Y-77877868D01*
X147172931Y-77859481D01*
X147138856Y-77850350D01*
X147109581Y-77845714D01*
X147053282Y-77827421D01*
X146964342Y-77803590D01*
X146907594Y-77780084D01*
X146863189Y-77765656D01*
X146821585Y-77744457D01*
X146764835Y-77720951D01*
X146685093Y-77674912D01*
X146632354Y-77648040D01*
X146608376Y-77630619D01*
X146577821Y-77612978D01*
X146466047Y-77527210D01*
X146422760Y-77495761D01*
X146415172Y-77488173D01*
X146406508Y-77481525D01*
X146253804Y-77328821D01*
X146247155Y-77320156D01*
X146239569Y-77312570D01*
X146208123Y-77269288D01*
X146122351Y-77157508D01*
X146104708Y-77126950D01*
X146087290Y-77102976D01*
X146060421Y-77050242D01*
X146014378Y-76970494D01*
X145990869Y-76913738D01*
X145969674Y-76872141D01*
X145955247Y-76827741D01*
X145931739Y-76770987D01*
X145907904Y-76682034D01*
X145889616Y-76625749D01*
X145884980Y-76596480D01*
X145875848Y-76562398D01*
X145857460Y-76422725D01*
X145849088Y-76369867D01*
X145849088Y-76359132D01*
X145847662Y-76348301D01*
X145847662Y-76132360D01*
X145849088Y-76121528D01*
X145849088Y-76110795D01*
X145857459Y-76057941D01*
X145875848Y-75918263D01*
X145884980Y-75884179D01*
X145889616Y-75854913D01*
X145907902Y-75798632D01*
X145931739Y-75709674D01*
X145955249Y-75652915D01*
X145969674Y-75608521D01*
X145990866Y-75566927D01*
X146014378Y-75510167D01*
X146060425Y-75430410D01*
X146087290Y-75377686D01*
X146104705Y-75353715D01*
X146122351Y-75323153D01*
X146208136Y-75211354D01*
X146239569Y-75168092D01*
X146247152Y-75160508D01*
X146253804Y-75151840D01*
X146406508Y-74999136D01*
X146415176Y-74992484D01*
X146422760Y-74984901D01*
X146466022Y-74953468D01*
X146577821Y-74867683D01*
X146608383Y-74850037D01*
X146632354Y-74832622D01*
X146685078Y-74805757D01*
X146764835Y-74759710D01*
X146821595Y-74736198D01*
X146863189Y-74715006D01*
X146907583Y-74700581D01*
X146964342Y-74677071D01*
X147053300Y-74653234D01*
X147109581Y-74634948D01*
X147138847Y-74630312D01*
X147172931Y-74621180D01*
X147312609Y-74602791D01*
X147365463Y-74594420D01*
X147376196Y-74594420D01*
X147387028Y-74592994D01*
X147602970Y-74592994D01*
X147613802Y-74594420D01*
G37*
G36*
X155623802Y-74594420D02*
G01*
X155634535Y-74594420D01*
X155687390Y-74602791D01*
X155827066Y-74621180D01*
X155861148Y-74630312D01*
X155890417Y-74634948D01*
X155946702Y-74653236D01*
X156035655Y-74677071D01*
X156092409Y-74700579D01*
X156136809Y-74715006D01*
X156178406Y-74736201D01*
X156235162Y-74759710D01*
X156314910Y-74805753D01*
X156367644Y-74832622D01*
X156391618Y-74850040D01*
X156422176Y-74867683D01*
X156533956Y-74953455D01*
X156577238Y-74984901D01*
X156584824Y-74992487D01*
X156593489Y-74999136D01*
X156746193Y-75151840D01*
X156752841Y-75160504D01*
X156760429Y-75168092D01*
X156791878Y-75211379D01*
X156877646Y-75323153D01*
X156895287Y-75353708D01*
X156912708Y-75377686D01*
X156939580Y-75430425D01*
X156985619Y-75510167D01*
X157009125Y-75566917D01*
X157030324Y-75608521D01*
X157044752Y-75652926D01*
X157068258Y-75709674D01*
X157092089Y-75798614D01*
X157110382Y-75854913D01*
X157115018Y-75884188D01*
X157124149Y-75918263D01*
X157142536Y-76057928D01*
X157150910Y-76110795D01*
X157150910Y-76121528D01*
X157152336Y-76132360D01*
X157152336Y-76348301D01*
X157150910Y-76359132D01*
X157150910Y-76369867D01*
X157142535Y-76422738D01*
X157124149Y-76562398D01*
X157115019Y-76596470D01*
X157110382Y-76625749D01*
X157092087Y-76682052D01*
X157068258Y-76770987D01*
X157044753Y-76827730D01*
X157030324Y-76872141D01*
X157009123Y-76913749D01*
X156985619Y-76970494D01*
X156939584Y-77050227D01*
X156912708Y-77102976D01*
X156895284Y-77126957D01*
X156877646Y-77157508D01*
X156791892Y-77269264D01*
X156760429Y-77312570D01*
X156752838Y-77320160D01*
X156746193Y-77328821D01*
X156593489Y-77481525D01*
X156584828Y-77488170D01*
X156577238Y-77495761D01*
X156533932Y-77527224D01*
X156422176Y-77612978D01*
X156391625Y-77630616D01*
X156367644Y-77648040D01*
X156314895Y-77674916D01*
X156235162Y-77720951D01*
X156178417Y-77744455D01*
X156136809Y-77765656D01*
X156092398Y-77780085D01*
X156035655Y-77803590D01*
X155946720Y-77827419D01*
X155890417Y-77845714D01*
X155861138Y-77850351D01*
X155827066Y-77859481D01*
X155687403Y-77877868D01*
X155634535Y-77886242D01*
X155623801Y-77886242D01*
X155612970Y-77887668D01*
X155397028Y-77887668D01*
X155386197Y-77886242D01*
X155375463Y-77886242D01*
X155322596Y-77877868D01*
X155182931Y-77859481D01*
X155148856Y-77850350D01*
X155119581Y-77845714D01*
X155063282Y-77827421D01*
X154974342Y-77803590D01*
X154917594Y-77780084D01*
X154873189Y-77765656D01*
X154831585Y-77744457D01*
X154774835Y-77720951D01*
X154695093Y-77674912D01*
X154642354Y-77648040D01*
X154618376Y-77630619D01*
X154587821Y-77612978D01*
X154476047Y-77527210D01*
X154432760Y-77495761D01*
X154425172Y-77488173D01*
X154416508Y-77481525D01*
X154263804Y-77328821D01*
X154257155Y-77320156D01*
X154249569Y-77312570D01*
X154218123Y-77269288D01*
X154132351Y-77157508D01*
X154114708Y-77126950D01*
X154097290Y-77102976D01*
X154070421Y-77050242D01*
X154024378Y-76970494D01*
X154000869Y-76913738D01*
X153979674Y-76872141D01*
X153965247Y-76827741D01*
X153941739Y-76770987D01*
X153917904Y-76682034D01*
X153899616Y-76625749D01*
X153894980Y-76596480D01*
X153885848Y-76562398D01*
X153867460Y-76422725D01*
X153859088Y-76369867D01*
X153859088Y-76359132D01*
X153857662Y-76348301D01*
X153857662Y-76132360D01*
X153859088Y-76121528D01*
X153859088Y-76110795D01*
X153867459Y-76057941D01*
X153885848Y-75918263D01*
X153894980Y-75884179D01*
X153899616Y-75854913D01*
X153917902Y-75798632D01*
X153941739Y-75709674D01*
X153965249Y-75652915D01*
X153979674Y-75608521D01*
X154000866Y-75566927D01*
X154024378Y-75510167D01*
X154070425Y-75430410D01*
X154097290Y-75377686D01*
X154114705Y-75353715D01*
X154132351Y-75323153D01*
X154218136Y-75211354D01*
X154249569Y-75168092D01*
X154257152Y-75160508D01*
X154263804Y-75151840D01*
X154416508Y-74999136D01*
X154425176Y-74992484D01*
X154432760Y-74984901D01*
X154476022Y-74953468D01*
X154587821Y-74867683D01*
X154618383Y-74850037D01*
X154642354Y-74832622D01*
X154695078Y-74805757D01*
X154774835Y-74759710D01*
X154831595Y-74736198D01*
X154873189Y-74715006D01*
X154917583Y-74700581D01*
X154974342Y-74677071D01*
X155063300Y-74653234D01*
X155119581Y-74634948D01*
X155148847Y-74630312D01*
X155182931Y-74621180D01*
X155322609Y-74602791D01*
X155375463Y-74594420D01*
X155386196Y-74594420D01*
X155397028Y-74592994D01*
X155612970Y-74592994D01*
X155623802Y-74594420D01*
G37*
G36*
X180613802Y-74594420D02*
G01*
X180624535Y-74594420D01*
X180677390Y-74602791D01*
X180817066Y-74621180D01*
X180851148Y-74630312D01*
X180880417Y-74634948D01*
X180936702Y-74653236D01*
X181025655Y-74677071D01*
X181082409Y-74700579D01*
X181126809Y-74715006D01*
X181168406Y-74736201D01*
X181225162Y-74759710D01*
X181304910Y-74805753D01*
X181357644Y-74832622D01*
X181381618Y-74850040D01*
X181412176Y-74867683D01*
X181523956Y-74953455D01*
X181567238Y-74984901D01*
X181574824Y-74992487D01*
X181583489Y-74999136D01*
X181736193Y-75151840D01*
X181742841Y-75160504D01*
X181750429Y-75168092D01*
X181781878Y-75211379D01*
X181867646Y-75323153D01*
X181885287Y-75353708D01*
X181902708Y-75377686D01*
X181929580Y-75430425D01*
X181975619Y-75510167D01*
X181999125Y-75566917D01*
X182020324Y-75608521D01*
X182034752Y-75652926D01*
X182058258Y-75709674D01*
X182082089Y-75798614D01*
X182100382Y-75854913D01*
X182105018Y-75884188D01*
X182114149Y-75918263D01*
X182132536Y-76057928D01*
X182140910Y-76110795D01*
X182140910Y-76121528D01*
X182142336Y-76132360D01*
X182142336Y-76348301D01*
X182140910Y-76359132D01*
X182140910Y-76369867D01*
X182132535Y-76422738D01*
X182114149Y-76562398D01*
X182105019Y-76596470D01*
X182100382Y-76625749D01*
X182082087Y-76682052D01*
X182058258Y-76770987D01*
X182034753Y-76827730D01*
X182020324Y-76872141D01*
X181999123Y-76913749D01*
X181975619Y-76970494D01*
X181929584Y-77050227D01*
X181902708Y-77102976D01*
X181885284Y-77126957D01*
X181867646Y-77157508D01*
X181781892Y-77269264D01*
X181750429Y-77312570D01*
X181742838Y-77320160D01*
X181736193Y-77328821D01*
X181583489Y-77481525D01*
X181574828Y-77488170D01*
X181567238Y-77495761D01*
X181523932Y-77527224D01*
X181412176Y-77612978D01*
X181381625Y-77630616D01*
X181357644Y-77648040D01*
X181304895Y-77674916D01*
X181225162Y-77720951D01*
X181168417Y-77744455D01*
X181126809Y-77765656D01*
X181082398Y-77780085D01*
X181025655Y-77803590D01*
X180936720Y-77827419D01*
X180880417Y-77845714D01*
X180851138Y-77850351D01*
X180817066Y-77859481D01*
X180677403Y-77877868D01*
X180624535Y-77886242D01*
X180613801Y-77886242D01*
X180602970Y-77887668D01*
X180387028Y-77887668D01*
X180376197Y-77886242D01*
X180365463Y-77886242D01*
X180312596Y-77877868D01*
X180172931Y-77859481D01*
X180138856Y-77850350D01*
X180109581Y-77845714D01*
X180053282Y-77827421D01*
X179964342Y-77803590D01*
X179907594Y-77780084D01*
X179863189Y-77765656D01*
X179821585Y-77744457D01*
X179764835Y-77720951D01*
X179685093Y-77674912D01*
X179632354Y-77648040D01*
X179608376Y-77630619D01*
X179577821Y-77612978D01*
X179466047Y-77527210D01*
X179422760Y-77495761D01*
X179415172Y-77488173D01*
X179406508Y-77481525D01*
X179253804Y-77328821D01*
X179247155Y-77320156D01*
X179239569Y-77312570D01*
X179208123Y-77269288D01*
X179122351Y-77157508D01*
X179104708Y-77126950D01*
X179087290Y-77102976D01*
X179060421Y-77050242D01*
X179014378Y-76970494D01*
X178990869Y-76913738D01*
X178969674Y-76872141D01*
X178955247Y-76827741D01*
X178931739Y-76770987D01*
X178907904Y-76682034D01*
X178889616Y-76625749D01*
X178884980Y-76596480D01*
X178875848Y-76562398D01*
X178857460Y-76422725D01*
X178849088Y-76369867D01*
X178849088Y-76359132D01*
X178847662Y-76348301D01*
X178847662Y-76132360D01*
X178849088Y-76121528D01*
X178849088Y-76110795D01*
X178857459Y-76057941D01*
X178875848Y-75918263D01*
X178884980Y-75884179D01*
X178889616Y-75854913D01*
X178907902Y-75798632D01*
X178931739Y-75709674D01*
X178955249Y-75652915D01*
X178969674Y-75608521D01*
X178990866Y-75566927D01*
X179014378Y-75510167D01*
X179060425Y-75430410D01*
X179087290Y-75377686D01*
X179104705Y-75353715D01*
X179122351Y-75323153D01*
X179208136Y-75211354D01*
X179239569Y-75168092D01*
X179247152Y-75160508D01*
X179253804Y-75151840D01*
X179406508Y-74999136D01*
X179415176Y-74992484D01*
X179422760Y-74984901D01*
X179466022Y-74953468D01*
X179577821Y-74867683D01*
X179608383Y-74850037D01*
X179632354Y-74832622D01*
X179685078Y-74805757D01*
X179764835Y-74759710D01*
X179821595Y-74736198D01*
X179863189Y-74715006D01*
X179907583Y-74700581D01*
X179964342Y-74677071D01*
X180053300Y-74653234D01*
X180109581Y-74634948D01*
X180138847Y-74630312D01*
X180172931Y-74621180D01*
X180312609Y-74602791D01*
X180365463Y-74594420D01*
X180376196Y-74594420D01*
X180387028Y-74592994D01*
X180602970Y-74592994D01*
X180613802Y-74594420D01*
G37*
G36*
X131062508Y-74253296D02*
G01*
X131198216Y-74309507D01*
X131320349Y-74391114D01*
X131424215Y-74494980D01*
X131505822Y-74617113D01*
X131562033Y-74752821D01*
X131590690Y-74896887D01*
X131590690Y-75043775D01*
X131562033Y-75187841D01*
X131505822Y-75323549D01*
X131424215Y-75445682D01*
X131320349Y-75549548D01*
X131198216Y-75631155D01*
X131062508Y-75687366D01*
X130918442Y-75716023D01*
X130771554Y-75716023D01*
X130627488Y-75687366D01*
X130491780Y-75631155D01*
X130369647Y-75549548D01*
X130265781Y-75445682D01*
X130184174Y-75323549D01*
X130127963Y-75187841D01*
X130099306Y-75043775D01*
X130099306Y-74896887D01*
X130127963Y-74752821D01*
X130184174Y-74617113D01*
X130265781Y-74494980D01*
X130369647Y-74391114D01*
X130491780Y-74309507D01*
X130627488Y-74253296D01*
X130771554Y-74224639D01*
X130918442Y-74224639D01*
X131062508Y-74253296D01*
G37*
G36*
X133832508Y-74253296D02*
G01*
X133968216Y-74309507D01*
X134090349Y-74391114D01*
X134194215Y-74494980D01*
X134275822Y-74617113D01*
X134332033Y-74752821D01*
X134360690Y-74896887D01*
X134360690Y-75043775D01*
X134332033Y-75187841D01*
X134275822Y-75323549D01*
X134194215Y-75445682D01*
X134090349Y-75549548D01*
X133968216Y-75631155D01*
X133832508Y-75687366D01*
X133688442Y-75716023D01*
X133541554Y-75716023D01*
X133397488Y-75687366D01*
X133261780Y-75631155D01*
X133139647Y-75549548D01*
X133035781Y-75445682D01*
X132954174Y-75323549D01*
X132897963Y-75187841D01*
X132869306Y-75043775D01*
X132869306Y-74896887D01*
X132897963Y-74752821D01*
X132954174Y-74617113D01*
X133035781Y-74494980D01*
X133139647Y-74391114D01*
X133261780Y-74309507D01*
X133397488Y-74253296D01*
X133541554Y-74224639D01*
X133688442Y-74224639D01*
X133832508Y-74253296D01*
G37*
G36*
X136602508Y-74253296D02*
G01*
X136738216Y-74309507D01*
X136860349Y-74391114D01*
X136964215Y-74494980D01*
X137045822Y-74617113D01*
X137102033Y-74752821D01*
X137130690Y-74896887D01*
X137130690Y-75043775D01*
X137102033Y-75187841D01*
X137045822Y-75323549D01*
X136964215Y-75445682D01*
X136860349Y-75549548D01*
X136738216Y-75631155D01*
X136602508Y-75687366D01*
X136458442Y-75716023D01*
X136311554Y-75716023D01*
X136167488Y-75687366D01*
X136031780Y-75631155D01*
X135909647Y-75549548D01*
X135805781Y-75445682D01*
X135724174Y-75323549D01*
X135667963Y-75187841D01*
X135639306Y-75043775D01*
X135639306Y-74896887D01*
X135667963Y-74752821D01*
X135724174Y-74617113D01*
X135805781Y-74494980D01*
X135909647Y-74391114D01*
X136031780Y-74309507D01*
X136167488Y-74253296D01*
X136311554Y-74224639D01*
X136458442Y-74224639D01*
X136602508Y-74253296D01*
G37*
G36*
X139372507Y-74253296D02*
G01*
X139508215Y-74309507D01*
X139630348Y-74391114D01*
X139734214Y-74494980D01*
X139815821Y-74617113D01*
X139872032Y-74752821D01*
X139900689Y-74896887D01*
X139900689Y-75043775D01*
X139872032Y-75187841D01*
X139815821Y-75323549D01*
X139734214Y-75445682D01*
X139630348Y-75549548D01*
X139508215Y-75631155D01*
X139372507Y-75687366D01*
X139228441Y-75716023D01*
X139081553Y-75716023D01*
X138937487Y-75687366D01*
X138801779Y-75631155D01*
X138679646Y-75549548D01*
X138575780Y-75445682D01*
X138494173Y-75323549D01*
X138437962Y-75187841D01*
X138409305Y-75043775D01*
X138409305Y-74896887D01*
X138437962Y-74752821D01*
X138494173Y-74617113D01*
X138575780Y-74494980D01*
X138679646Y-74391114D01*
X138801779Y-74309507D01*
X138937487Y-74253296D01*
X139081553Y-74224639D01*
X139228441Y-74224639D01*
X139372507Y-74253296D01*
G37*
G36*
X164062508Y-74253296D02*
G01*
X164198216Y-74309507D01*
X164320349Y-74391114D01*
X164424215Y-74494980D01*
X164505822Y-74617113D01*
X164562033Y-74752821D01*
X164590690Y-74896887D01*
X164590690Y-75043775D01*
X164562033Y-75187841D01*
X164505822Y-75323549D01*
X164424215Y-75445682D01*
X164320349Y-75549548D01*
X164198216Y-75631155D01*
X164062508Y-75687366D01*
X163918442Y-75716023D01*
X163771554Y-75716023D01*
X163627488Y-75687366D01*
X163491780Y-75631155D01*
X163369647Y-75549548D01*
X163265781Y-75445682D01*
X163184174Y-75323549D01*
X163127963Y-75187841D01*
X163099306Y-75043775D01*
X163099306Y-74896887D01*
X163127963Y-74752821D01*
X163184174Y-74617113D01*
X163265781Y-74494980D01*
X163369647Y-74391114D01*
X163491780Y-74309507D01*
X163627488Y-74253296D01*
X163771554Y-74224639D01*
X163918442Y-74224639D01*
X164062508Y-74253296D01*
G37*
G36*
X166832508Y-74253296D02*
G01*
X166968216Y-74309507D01*
X167090349Y-74391114D01*
X167194215Y-74494980D01*
X167275822Y-74617113D01*
X167332033Y-74752821D01*
X167360690Y-74896887D01*
X167360690Y-75043775D01*
X167332033Y-75187841D01*
X167275822Y-75323549D01*
X167194215Y-75445682D01*
X167090349Y-75549548D01*
X166968216Y-75631155D01*
X166832508Y-75687366D01*
X166688442Y-75716023D01*
X166541554Y-75716023D01*
X166397488Y-75687366D01*
X166261780Y-75631155D01*
X166139647Y-75549548D01*
X166035781Y-75445682D01*
X165954174Y-75323549D01*
X165897963Y-75187841D01*
X165869306Y-75043775D01*
X165869306Y-74896887D01*
X165897963Y-74752821D01*
X165954174Y-74617113D01*
X166035781Y-74494980D01*
X166139647Y-74391114D01*
X166261780Y-74309507D01*
X166397488Y-74253296D01*
X166541554Y-74224639D01*
X166688442Y-74224639D01*
X166832508Y-74253296D01*
G37*
G36*
X169602508Y-74253296D02*
G01*
X169738216Y-74309507D01*
X169860349Y-74391114D01*
X169964215Y-74494980D01*
X170045822Y-74617113D01*
X170102033Y-74752821D01*
X170130690Y-74896887D01*
X170130690Y-75043775D01*
X170102033Y-75187841D01*
X170045822Y-75323549D01*
X169964215Y-75445682D01*
X169860349Y-75549548D01*
X169738216Y-75631155D01*
X169602508Y-75687366D01*
X169458442Y-75716023D01*
X169311554Y-75716023D01*
X169167488Y-75687366D01*
X169031780Y-75631155D01*
X168909647Y-75549548D01*
X168805781Y-75445682D01*
X168724174Y-75323549D01*
X168667963Y-75187841D01*
X168639306Y-75043775D01*
X168639306Y-74896887D01*
X168667963Y-74752821D01*
X168724174Y-74617113D01*
X168805781Y-74494980D01*
X168909647Y-74391114D01*
X169031780Y-74309507D01*
X169167488Y-74253296D01*
X169311554Y-74224639D01*
X169458442Y-74224639D01*
X169602508Y-74253296D01*
G37*
G36*
X172372507Y-74253296D02*
G01*
X172508215Y-74309507D01*
X172630348Y-74391114D01*
X172734214Y-74494980D01*
X172815821Y-74617113D01*
X172872032Y-74752821D01*
X172900689Y-74896887D01*
X172900689Y-75043775D01*
X172872032Y-75187841D01*
X172815821Y-75323549D01*
X172734214Y-75445682D01*
X172630348Y-75549548D01*
X172508215Y-75631155D01*
X172372507Y-75687366D01*
X172228441Y-75716023D01*
X172081553Y-75716023D01*
X171937487Y-75687366D01*
X171801779Y-75631155D01*
X171679646Y-75549548D01*
X171575780Y-75445682D01*
X171494173Y-75323549D01*
X171437962Y-75187841D01*
X171409305Y-75043775D01*
X171409305Y-74896887D01*
X171437962Y-74752821D01*
X171494173Y-74617113D01*
X171575780Y-74494980D01*
X171679646Y-74391114D01*
X171801779Y-74309507D01*
X171937487Y-74253296D01*
X172081553Y-74224639D01*
X172228441Y-74224639D01*
X172372507Y-74253296D01*
G37*
G36*
X103264848Y-68950964D02*
G01*
X103315040Y-68956787D01*
X103332189Y-68964359D01*
X103355670Y-68969030D01*
X103380807Y-68985826D01*
X103400695Y-68994608D01*
X103414278Y-69008191D01*
X103436776Y-69023224D01*
X103451808Y-69045721D01*
X103465391Y-69059304D01*
X103474171Y-69079189D01*
X103490970Y-69104330D01*
X103495640Y-69127811D01*
X103503212Y-69144959D01*
X103509036Y-69195163D01*
X103509999Y-69200002D01*
X103509999Y-69203458D01*
X103510000Y-69203467D01*
X103510000Y-70082369D01*
X103510000Y-70799999D01*
X103509034Y-70804851D01*
X103503212Y-70855040D01*
X103495641Y-70872185D01*
X103490970Y-70895670D01*
X103474170Y-70920812D01*
X103465391Y-70940695D01*
X103451810Y-70954275D01*
X103436776Y-70976776D01*
X103414275Y-70991810D01*
X103400695Y-71005391D01*
X103380812Y-71014170D01*
X103355670Y-71030970D01*
X103332187Y-71035640D01*
X103315040Y-71043212D01*
X103264836Y-71049036D01*
X103259998Y-71049999D01*
X103256541Y-71049999D01*
X103256533Y-71050000D01*
X101663467Y-71050000D01*
X101663466Y-71049999D01*
X101660001Y-71050000D01*
X101655149Y-71049035D01*
X101604959Y-71043212D01*
X101587812Y-71035640D01*
X101564330Y-71030970D01*
X101539189Y-71014171D01*
X101519304Y-71005391D01*
X101505721Y-70991808D01*
X101483224Y-70976776D01*
X101468191Y-70954278D01*
X101454608Y-70940695D01*
X101445826Y-70920807D01*
X101429030Y-70895670D01*
X101424360Y-70872191D01*
X101416787Y-70855040D01*
X101410963Y-70804836D01*
X101410001Y-70799998D01*
X101410000Y-70796540D01*
X101410000Y-70796532D01*
X101410000Y-69203467D01*
X101410000Y-69203466D01*
X101410000Y-69200001D01*
X101410964Y-69195151D01*
X101416787Y-69144959D01*
X101424359Y-69127808D01*
X101429030Y-69104330D01*
X101445825Y-69079193D01*
X101454608Y-69059304D01*
X101468193Y-69045718D01*
X101483224Y-69023224D01*
X101505718Y-69008193D01*
X101519304Y-68994608D01*
X101539193Y-68985825D01*
X101564330Y-68969030D01*
X101587807Y-68964360D01*
X101604959Y-68956787D01*
X101655165Y-68950963D01*
X101660002Y-68950001D01*
X101663458Y-68950000D01*
X101663467Y-68950000D01*
X103256533Y-68950000D01*
X103259999Y-68950000D01*
X103264848Y-68950964D01*
G37*
G36*
X105092687Y-68955056D02*
G01*
X105102918Y-68955056D01*
X105142893Y-68963007D01*
X105245074Y-68979191D01*
X105277943Y-68989870D01*
X105304799Y-68995213D01*
X105342700Y-69010912D01*
X105401741Y-69030096D01*
X105457052Y-69058278D01*
X105494967Y-69073983D01*
X105517742Y-69089201D01*
X105548528Y-69104887D01*
X105632217Y-69165690D01*
X105666113Y-69188339D01*
X105673347Y-69195573D01*
X105681798Y-69201713D01*
X105798286Y-69318201D01*
X105804425Y-69326651D01*
X105811661Y-69333887D01*
X105834312Y-69367787D01*
X105895112Y-69451471D01*
X105910796Y-69482254D01*
X105926017Y-69505033D01*
X105941723Y-69542952D01*
X105969903Y-69598258D01*
X105989084Y-69657292D01*
X106004787Y-69695201D01*
X106010130Y-69722062D01*
X106020808Y-69754925D01*
X106036990Y-69857098D01*
X106044944Y-69897082D01*
X106044944Y-69907313D01*
X106046578Y-69917630D01*
X106046578Y-70082369D01*
X106044944Y-70092685D01*
X106044944Y-70102918D01*
X106036990Y-70142905D01*
X106020808Y-70245074D01*
X106010130Y-70277935D01*
X106004787Y-70304799D01*
X105989083Y-70342711D01*
X105969903Y-70401741D01*
X105941726Y-70457041D01*
X105926017Y-70494967D01*
X105910794Y-70517749D01*
X105895112Y-70548528D01*
X105834320Y-70632200D01*
X105811661Y-70666113D01*
X105804423Y-70673350D01*
X105798286Y-70681798D01*
X105681798Y-70798286D01*
X105673350Y-70804423D01*
X105666113Y-70811661D01*
X105632200Y-70834320D01*
X105548528Y-70895112D01*
X105517749Y-70910794D01*
X105494967Y-70926017D01*
X105457041Y-70941726D01*
X105401741Y-70969903D01*
X105342711Y-70989083D01*
X105304799Y-71004787D01*
X105277935Y-71010130D01*
X105245074Y-71020808D01*
X105142902Y-71036990D01*
X105102918Y-71044944D01*
X105092687Y-71044944D01*
X105082370Y-71046578D01*
X104917630Y-71046578D01*
X104907313Y-71044944D01*
X104897082Y-71044944D01*
X104857098Y-71036990D01*
X104754925Y-71020808D01*
X104722062Y-71010130D01*
X104695201Y-71004787D01*
X104657292Y-70989084D01*
X104598258Y-70969903D01*
X104542952Y-70941723D01*
X104505033Y-70926017D01*
X104482254Y-70910796D01*
X104451471Y-70895112D01*
X104367787Y-70834312D01*
X104333887Y-70811661D01*
X104326651Y-70804425D01*
X104318201Y-70798286D01*
X104201713Y-70681798D01*
X104195573Y-70673347D01*
X104188339Y-70666113D01*
X104165690Y-70632217D01*
X104104887Y-70548528D01*
X104089201Y-70517742D01*
X104073983Y-70494967D01*
X104058278Y-70457052D01*
X104030096Y-70401741D01*
X104010912Y-70342700D01*
X103995213Y-70304799D01*
X103989870Y-70277943D01*
X103979191Y-70245074D01*
X103963008Y-70142895D01*
X103955056Y-70102918D01*
X103955056Y-70092686D01*
X103953422Y-70082369D01*
X103953422Y-69917630D01*
X103955056Y-69907312D01*
X103955056Y-69897082D01*
X103963007Y-69857108D01*
X103979191Y-69754925D01*
X103989871Y-69722054D01*
X103995213Y-69695201D01*
X104010910Y-69657303D01*
X104030096Y-69598258D01*
X104058280Y-69542942D01*
X104073983Y-69505033D01*
X104089199Y-69482260D01*
X104104887Y-69451471D01*
X104165699Y-69367770D01*
X104188339Y-69333887D01*
X104195570Y-69326655D01*
X104201713Y-69318201D01*
X104318201Y-69201713D01*
X104326655Y-69195570D01*
X104333887Y-69188339D01*
X104367770Y-69165699D01*
X104451471Y-69104887D01*
X104482260Y-69089199D01*
X104505033Y-69073983D01*
X104542942Y-69058280D01*
X104598258Y-69030096D01*
X104657303Y-69010910D01*
X104695201Y-68995213D01*
X104722054Y-68989871D01*
X104754925Y-68979191D01*
X104857108Y-68963007D01*
X104897082Y-68955056D01*
X104907313Y-68955056D01*
X104917630Y-68953422D01*
X105082370Y-68953422D01*
X105092687Y-68955056D01*
G37*
M02*
